<?xml version="1.0" encoding="utf-8"?>
<!-- Generator: Adobe Illustrator 18.1.0, SVG Export Plug-In . SVG Version: 6.00 Build 0)  -->
<svg version="1.1" id="Layer_1" xmlns="http://www.w3.org/2000/svg" xmlns:xlink="http://www.w3.org/1999/xlink" x="0px" y="0px"
	 viewBox="-121 43 396 396" enable-background="new -121 43 396 396" xml:space="preserve">
<g>
	<path fill="#F4A49E" d="M18.2,190.6c21.5,0,39.4-17.3,39.4-39.4s-17.9-39.4-39.4-39.4s-39.4,17.3-39.4,39.4S-3.3,190.6,18.2,190.6z
		 M18.2,118.9c17.9,0,32.3,14.3,32.3,32.3s-14.3,32.3-32.3,32.3S-14,169.1-14,151.2S0.3,118.9,18.2,118.9z"/>
	<path fill="#F4A49E" d="M125.2,218.1c15.5,0,28.7-12.5,28.7-28.7s-12.5-28.7-28.7-28.7s-28.7,12.5-28.7,28.7
		S109.7,218.1,125.2,218.1z M125.2,167.9c12,0,21.5,9.6,21.5,21.5s-9.6,21.5-21.5,21.5c-12,0-21.5-9.6-21.5-21.5
		S113.2,167.9,125.2,167.9z"/>
	<path fill="#F4A49E" d="M238.1,211.5c10.2,0,18.5-8.4,18.5-18.5c0-10.2-8.4-18.5-18.5-18.5s-18.5,8.4-18.5,18.5
		S228,211.5,238.1,211.5z M238.1,181.6c6.6,0,11.4,5.4,11.4,11.4s-5.4,11.4-11.4,11.4s-11.4-5.4-11.4-11.4S231.6,181.6,238.1,181.6z
		"/>
	<path fill="#F4A49E" d="M138.3,265.3c-25.1,0-45.4,20.3-45.4,45.4s20.3,45.4,45.4,45.4s45.4-20.3,45.4-45.4
		S163.4,265.3,138.3,265.3z M138.3,349c-20.9,0-38.2-17.3-38.2-38.2c0-20.9,17.3-38.2,38.2-38.2s38.2,17.3,38.2,38.2
		C176.6,331.6,159.9,349,138.3,349z"/>
	<path fill="#F4A49E" d="M76.8,43C-32,43-121,131.4-121,240.8s88.4,197.8,197.8,197.8s197.8-88.4,197.8-197.8S185.6,43,76.8,43z
		 M76.8,431.4c-105.2,0-190.6-85.4-190.6-190.6S-28.4,50.2,76.8,50.2s190.6,85.5,190.6,190.6S182,431.4,76.8,431.4z"/>
	<path fill="#F4A49E" d="M-52.9,265.3c-13.1,0-24.5,10.8-24.5,24.5c0,13.7,10.8,24.5,24.5,24.5s24.5-11.4,24.5-24.5
		S-39.1,265.3-52.9,265.3z M-52.9,307.1c-9.6,0-17.3-7.8-17.3-17.3c0-9.6,7.8-17.3,17.3-17.3s17.3,7.8,17.3,17.3
		C-35.5,299.4-43.3,307.1-52.9,307.1z"/>
	<path fill="#F4A49E" d="M35.6,258.7c-10.2,0-17.9,7.8-17.9,17.9c0,10.1,7.8,17.9,17.9,17.9s17.9-7.8,17.9-17.9
		C53.5,266.5,45.7,258.7,35.6,258.7z M35.6,288c-6,0-11.4-4.8-11.4-11.4s4.8-11.4,11.4-11.4c6.6,0,11.4,4.8,11.4,11.4
		C46.9,283.2,41.5,288,35.6,288z"/>
	<path fill="#F4A49E" d="M-56.5,204.3c0-11.4-9.6-20.9-20.9-20.9s-20.9,9.6-20.9,20.9c0,11.4,9.6,20.9,20.9,20.9
		S-56.5,216.3-56.5,204.3z M-77.4,218.7c-7.8,0-14.3-6.6-14.3-14.3s6.6-14.4,14.3-14.4s14.4,6.6,14.4,14.3S-69.6,218.7-77.4,218.7z"
		/>
	<rect x="-26.6" y="237.2" fill="#F4A49E" width="6" height="6.6"/>
	<rect x="8.7" y="237.2" fill="#F4A49E" width="6" height="6.6"/>
	<rect x="-2.7" y="237.2" fill="#F4A49E" width="6" height="6.6"/>
	<rect x="-73.2" y="237.2" fill="#F4A49E" width="6" height="6.6"/>
	<rect x="-14.6" y="237.2" fill="#F4A49E" width="6" height="6.6"/>
	<rect x="43.9" y="237.2" fill="#F4A49E" width="6" height="6.6"/>
	<rect x="-37.9" y="237.2" fill="#F4A49E" width="6" height="6.6"/>
	<rect x="-61.8" y="237.2" fill="#F4A49E" width="6" height="6.6"/>
	<rect x="32.6" y="237.2" fill="#F4A49E" width="6" height="6.6"/>
	<rect x="-49.9" y="237.2" fill="#F4A49E" width="6" height="6.6"/>
	<rect x="20.6" y="237.2" fill="#F4A49E" width="6" height="6.6"/>
	<rect x="-85.1" y="237.2" fill="#F4A49E" width="6" height="6.6"/>
	<rect x="-97.1" y="237.2" fill="#F4A49E" width="6" height="6.6"/>
	<rect x="-109" y="237.2" fill="#F4A49E" width="6" height="6.6"/>
	<rect x="208.9" y="237.2" fill="#F4A49E" width="6" height="6.6"/>
	<rect x="91.1" y="237.2" fill="#F4A49E" width="6" height="6.6"/>
	<rect x="185.6" y="237.2" fill="#F4A49E" width="6" height="6.6"/>
	<rect x="173.6" y="237.2" fill="#F4A49E" width="6" height="6.6"/>
	<rect x="150.3" y="237.2" fill="#F4A49E" width="6" height="6.6"/>
	<rect x="138.3" y="237.2" fill="#F4A49E" width="6" height="6.6"/>
	<rect x="161.7" y="237.2" fill="#F4A49E" width="6" height="6.6"/>
	<rect x="256.1" y="237.2" fill="#F4A49E" width="6" height="6.6"/>
	<rect x="232.8" y="237.2" fill="#F4A49E" width="6" height="6.6"/>
	<rect x="244.1" y="237.2" fill="#F4A49E" width="6" height="6.6"/>
	<rect x="220.8" y="237.2" fill="#F4A49E" width="6" height="6.6"/>
	<rect x="196.9" y="237.2" fill="#F4A49E" width="6" height="6.6"/>
	<rect x="103.1" y="237.2" fill="#F4A49E" width="6" height="6.6"/>
	<rect x="126.4" y="237.2" fill="#F4A49E" width="6" height="6.6"/>
	<rect x="55.9" y="237.2" fill="#F4A49E" width="6" height="6.6"/>
	<rect x="115" y="237.2" fill="#F4A49E" width="6" height="6.6"/>
	<rect x="73.2" y="161.3" fill="#F4A49E" width="6.6" height="6"/>
	<rect x="73.2" y="149.4" fill="#F4A49E" width="6.6" height="6"/>
	<rect x="73.2" y="126.1" fill="#F4A49E" width="6.6" height="6"/>
	<rect x="73.2" y="173.3" fill="#F4A49E" width="6.6" height="6"/>
	<rect x="73.2" y="138" fill="#F4A49E" width="6.6" height="6"/>
	<rect x="73.2" y="67.5" fill="#F4A49E" width="6.6" height="6"/>
	<rect x="73.2" y="55.5" fill="#F4A49E" width="6.6" height="6"/>
	<rect x="73.2" y="102.8" fill="#F4A49E" width="6.6" height="6"/>
	<rect x="73.2" y="114.1" fill="#F4A49E" width="6.6" height="6"/>
	<rect x="73.2" y="78.9" fill="#F4A49E" width="6.6" height="6"/>
	<rect x="73.2" y="90.8" fill="#F4A49E" width="6.6" height="6"/>
	<path fill="#F4A49E" d="M79.8,231.8h-6.6v5.4h-5.4v6.6h5.4v5.4h6.6v-5.4h5.4v-6.6h-5.4V231.8z M79.8,237.8v6h-6v-6H79.8z"/>
	<rect x="73.2" y="326.2" fill="#F4A49E" width="6.6" height="6"/>
	<rect x="73.2" y="314.3" fill="#F4A49E" width="6.6" height="6"/>
	<rect x="73.2" y="302.3" fill="#F4A49E" width="6.6" height="6"/>
	<rect x="73.2" y="337.6" fill="#F4A49E" width="6.6" height="6"/>
	<rect x="73.2" y="267.1" fill="#F4A49E" width="6.6" height="6"/>
	<rect x="73.2" y="291" fill="#F4A49E" width="6.6" height="6"/>
	<rect x="73.2" y="349.6" fill="#F4A49E" width="6.6" height="6"/>
	<rect x="73.2" y="184.6" fill="#F4A49E" width="6.6" height="6"/>
	<rect x="73.2" y="279" fill="#F4A49E" width="6.6" height="6"/>
	<rect x="73.2" y="255.7" fill="#F4A49E" width="6.6" height="6"/>
	<rect x="73.2" y="208.5" fill="#F4A49E" width="6.6" height="6"/>
	<rect x="73.2" y="420.1" fill="#F4A49E" width="6.6" height="6"/>
	<rect x="73.2" y="220.5" fill="#F4A49E" width="6.6" height="6"/>
	<rect x="73.2" y="196.6" fill="#F4A49E" width="6.6" height="6"/>
	<rect x="73.2" y="396.8" fill="#F4A49E" width="6.6" height="6"/>
	<rect x="73.2" y="373.5" fill="#F4A49E" width="6.6" height="6"/>
	<rect x="73.2" y="384.8" fill="#F4A49E" width="6.6" height="6"/>
	<rect x="73.2" y="361.5" fill="#F4A49E" width="6.6" height="6"/>
	<rect x="73.2" y="408.7" fill="#F4A49E" width="6.6" height="6"/>
</g>
</svg>
