<?xml version="1.0" encoding="utf-8"?>
<!-- Generator: Adobe Illustrator 18.1.0, SVG Export Plug-In . SVG Version: 6.00 Build 0)  -->
<svg version="1.1" id="Layer_1" xmlns="http://www.w3.org/2000/svg" xmlns:xlink="http://www.w3.org/1999/xlink" x="0px" y="0px"
	 viewBox="-122 43 395 395" enable-background="new -122 43 395 395" xml:space="preserve">
<g>
	<path fill="#F4A49E" d="M75.5,86.1c-85,0-154.4,69.4-154.4,154.4S-9.5,394.9,75.5,394.9s154.4-69.4,154.4-154.4
		C229.3,155.5,160.5,86.1,75.5,86.1z M75.5,388.3c-81.4,0-147.8-66.4-147.8-147.8S-5.9,92.7,75.5,92.7s147.2,66.4,147.2,147.8
		S156.9,388.3,75.5,388.3z"/>
	<path fill="#F4A49E" d="M213.2,98.7c-1.2-1.2-3-3-4.2-4.2l-4.8,4.8c1.2,1.2,3,2.4,4.2,4.2L213.2,98.7z"/>
	<path fill="#F4A49E" d="M81.5,43c-1.8,0-4.2,0-6,0v6.6c1.8,0,4.2,0,6,0V43z"/>
	<path fill="#F4A49E" d="M204.2,90.3c-1.8-1.2-3-2.4-4.8-4.2l-4.2,5.4c1.8,1.2,3,2.4,4.8,3.6L204.2,90.3z"/>
	<path fill="#F4A49E" d="M237.7,140l6-3.6c-1.2-1.8-2.4-3.6-3-5.4l-6,4.2C235.3,136.4,236.5,138.2,237.7,140z"/>
	<path fill="#F4A49E" d="M231.1,130.4l5.4-4.2c-1.2-1.8-2.4-3-3.6-4.8l-5.4,4.2C228.7,126.8,229.9,128.6,231.1,130.4z"/>
	<path fill="#F4A49E" d="M223.9,120.8l5.4-4.2c-1.2-1.8-2.4-3-3.6-4.8l-5.4,4.2C221.5,117.8,222.7,119,223.9,120.8z"/>
	<path fill="#F4A49E" d="M117.4,47.2c-1.8-0.6-4.2-0.6-6-1.2l-1.2,6.6c1.8,0.6,3.6,0.6,6,1.2L117.4,47.2z"/>
	<path fill="#F4A49E" d="M243.7,150.1l6-3c-1.2-1.8-1.8-3.6-3-5.4l-6,3.6C241.9,146.5,242.5,148.3,243.7,150.1z"/>
	<path fill="#F4A49E" d="M129.4,50.2c-1.8-0.6-4.2-1.2-6-1.8l-1.8,6.6c1.8,0.6,3.6,1.2,5.4,1.8L129.4,50.2z"/>
	<path fill="#F4A49E" d="M93.5,43.6c-1.8,0-4.2-0.6-6-0.6l-0.6,6.6c1.8,0,4.2,0,6,0.6L93.5,43.6z"/>
	<path fill="#F4A49E" d="M140.7,53.8c-1.8-0.6-3.6-1.2-6-1.8l-1.8,6.6c1.8,0.6,3.6,1.2,5.4,1.8L140.7,53.8z"/>
	<path fill="#F4A49E" d="M105.4,44.8c-1.8-0.6-4.2-0.6-6-0.6l-0.6,6.6c1.8,0,3.6,0.6,6,0.6L105.4,44.8z"/>
	<path fill="#F4A49E" d="M152.1,58.6c-1.8-0.6-3.6-1.8-5.4-2.4l-2.4,6.6c1.8,0.6,3.6,1.2,5.4,1.8L152.1,58.6z"/>
	<path fill="#F4A49E" d="M184.4,75.9c-1.8-1.2-3.6-2.4-5.4-3.6l-3.6,6c1.8,1.2,3.6,2.4,4.8,3L184.4,75.9z"/>
	<path fill="#F4A49E" d="M174.2,69.3c-1.8-1.2-3.6-1.8-5.4-3l-3,6c1.8,0.6,3,1.8,4.8,3L174.2,69.3z"/>
	<path fill="#F4A49E" d="M194.6,82.5c-1.8-1.2-3-2.4-4.8-3.6l-4.2,6c1.8,1.2,3,2.4,4.8,3.6L194.6,82.5z"/>
	<path fill="#F4A49E" d="M163.5,63.3c-1.8-1.2-3.6-1.8-5.4-2.4l-3,6c1.8,0.6,3.6,1.8,5.4,2.4L163.5,63.3z"/>
	<path fill="#F4A49E" d="M216.7,111.8l4.8-4.8c-1.2-1.8-3-3-4.2-4.2l-4.8,4.8C213.8,108.8,214.9,110.6,216.7,111.8z"/>
	<path fill="#F4A49E" d="M265.2,186l-6.6,1.8c0.6,1.8,1.2,3.6,1.8,5.4l6.6-1.8C266.4,190.2,265.8,188.4,265.2,186z"/>
	<path fill="#F4A49E" d="M249.1,160.3l6-3c-0.6-1.8-1.8-3.6-2.4-5.4l-6,3C247.3,157.3,247.9,159.1,249.1,160.3z"/>
	<path fill="#F4A49E" d="M268.2,198l-6.6,1.2c0.6,1.8,0.6,3.6,1.2,6l6.6-1.2C269.4,202.2,268.8,199.8,268.2,198z"/>
	<path fill="#F4A49E" d="M257.4,163.3l-6,2.4c0.6,1.8,1.2,3.6,2.4,5.4l6.6-2.4C258.6,166.9,258,165.1,257.4,163.3z"/>
	<path fill="#F4A49E" d="M261.6,174.7l-6,2.4c0.6,1.8,1.2,3.6,1.8,5.4l6.6-1.8C262.8,178.3,262.2,176.5,261.6,174.7z"/>
	<path fill="#F4A49E" d="M273,234.5h-6.6c0,1.8,0,4.2,0,6h6.6C273,238.1,273,236.3,273,234.5z"/>
	<path fill="#F4A49E" d="M272.4,221.9l-6.6,0.6c0,1.8,0.6,4.2,0.6,6l6.6-0.6C272.4,226.1,272.4,224.3,272.4,221.9z"/>
	<path fill="#F4A49E" d="M270.6,210l-6.6,1.2c0,1.8,0.6,3.6,0.6,6l6.6-0.6C271.2,214.2,271.2,211.8,270.6,210z"/>
	<path fill="#F4A49E" d="M-87.3,341l-6,3.6c1.2,1.8,2.4,3.6,3,5.4l5.4-3.6C-84.9,344.6-86.1,342.8-87.3,341z"/>
	<path fill="#F4A49E" d="M-34,405.1c1.8,1.2,3.6,2.4,5.4,3.6l3.6-6c-1.8-1.2-3.6-2.4-4.8-3L-34,405.1z"/>
	<path fill="#F4A49E" d="M-53.2,390.7c1.8,1.2,3,2.4,4.8,4.2l4.2-5.4c-1.8-1.2-3-2.4-4.8-3.6L-53.2,390.7z"/>
	<path fill="#F4A49E" d="M-44.2,398.5c1.8,1.2,3,2.4,4.8,3.6l4.2-5.4c-1.8-1.2-3-2.4-4.8-3.6L-44.2,398.5z"/>
	<path fill="#F4A49E" d="M-62.2,382.3c1.2,1.2,3,3,4.2,4.2l4.8-4.8c-1.2-1.2-3-2.4-4.2-4.2L-62.2,382.3z"/>
	<path fill="#F4A49E" d="M-65.7,369.2l-4.8,4.8c1.2,1.8,3,3,4.2,4.2l4.8-4.8C-63.3,372.2-64.5,370.4-65.7,369.2z"/>
	<path fill="#F4A49E" d="M-73.5,360.2l-5.4,4.2c1.2,1.8,2.4,3,3.6,4.8l5.4-4.2C-71.1,363.2-72.3,362-73.5,360.2z"/>
	<path fill="#F4A49E" d="M-93.3,330.9l-6,3c1.2,1.8,1.8,3.6,3,5.4l6-3.6C-90.9,334.5-92.1,332.7-93.3,330.9z"/>
	<path fill="#F4A49E" d="M-80.7,350.6l-5.4,4.2c1.2,1.8,2.4,3,3.6,4.8l5.4-4.2C-78.3,354.2-79.5,352.4-80.7,350.6z"/>
	<path fill="#F4A49E" d="M-115.4,252.5l-6.6,0.6c0,1.8,0,4.2,0.6,6l6.6-0.6C-114.8,256.1-115.4,254.3-115.4,252.5z"/>
	<path fill="#F4A49E" d="M-115.4,240.5h-6.6c0,1.8,0,4.2,0,6h6.6C-115.4,244.7-115.4,242.9-115.4,240.5z"/>
	<path fill="#F4A49E" d="M-114.2,263.8l-6.6,0.6c0,1.8,0.6,4.2,0.6,6l6.6-1.2C-113.6,268-114.2,266.2-114.2,263.8z"/>
	<path fill="#F4A49E" d="M-110,287.2l-6.6,1.8c0.6,1.8,1.2,4.2,1.8,6l6.6-1.8C-108.8,290.8-109.4,289-110,287.2z"/>
	<path fill="#F4A49E" d="M-112.4,275.8l-6.6,1.2c0.6,1.8,0.6,4.2,1.2,6l6.6-1.2C-111.8,279.4-111.8,277.6-112.4,275.8z"/>
	<path fill="#F4A49E" d="M-106.4,298.6l-6.6,1.7c0.6,1.8,1.2,3.6,1.8,6l6.6-2.4C-105.2,302.1-105.8,300.3-106.4,298.6z"/>
	<path fill="#F4A49E" d="M-102.8,309.9l-6.6,2.4c0.6,1.8,1.2,3.6,2.4,5.4l6-2.4C-101.7,313.5-102.3,311.7-102.8,309.9z"/>
	<path fill="#F4A49E" d="M-98.1,320.7l-6,3c0.6,1.8,1.8,3.6,2.4,5.4l6-3C-96.3,323.7-97.5,322.5-98.1,320.7z"/>
	<path fill="#F4A49E" d="M56.9,437.4c1.8,0,4.2,0.6,6,0.6l0.6-6.6c-1.8,0-4.2,0-6-0.6L56.9,437.4z"/>
	<path fill="#F4A49E" d="M45,436.2c1.8,0.6,4.2,0.6,6,0.6l0.6-6.6c-1.8,0-3.6-0.6-6-0.6L45,436.2z"/>
	<path fill="#F4A49E" d="M33,433.8c1.8,0.6,4.2,0.6,6,1.2l1.2-6.6c-1.8-0.6-3.6-0.6-6-1.2L33,433.8z"/>
	<path fill="#F4A49E" d="M68.9,438c1.8,0,4.2,0,6,0v-6.6c-1.8,0-4.2,0-6,0V438z"/>
	<path fill="#F4A49E" d="M-23.8,411.7c1.8,1.2,3.6,1.8,5.4,3l3-6c-1.8-1.2-3.6-1.8-5.4-3L-23.8,411.7z"/>
	<path fill="#F4A49E" d="M-13.1,417.7c1.8,1.2,3.6,1.8,5.4,2.4l3-6c-1.8-0.6-3.6-1.8-5.4-2.4L-13.1,417.7z"/>
	<path fill="#F4A49E" d="M-1.7,422.4c1.8,0.6,3.6,1.8,5.4,2.4l2.4-6.6c-1.8-0.6-3.6-1.2-5.4-2.4L-1.7,422.4z"/>
	<path fill="#F4A49E" d="M21,430.8c1.8,0.6,4.2,1.2,6,1.8l1.8-6.6c-1.8-0.6-3.6-1.2-5.4-1.8L21,430.8z"/>
	<path fill="#F4A49E" d="M9.7,427.2c1.8,0.6,3.6,1.2,6,1.8l1.8-6.6c-1.8-0.6-3.6-1.2-5.4-1.8L9.7,427.2z"/>
	<path fill="#F4A49E" d="M226.3,148.9c-1.2-1.8-2.4-3.6-3-5.4l-5.4,3.6c1.2,1.8,2.4,3.6,3,4.8L226.3,148.9z"/>
	<path fill="#F4A49E" d="M232.3,159.7c-1.2-1.8-1.8-3.6-3-5.4l-6,3.6c1.2,1.8,1.8,3.6,3,5.4L232.3,159.7z"/>
	<path fill="#F4A49E" d="M246.1,193.8c-0.6-1.8-1.2-4.2-1.8-6l-6.6,1.8c0.6,1.8,1.2,3.6,1.8,5.4L246.1,193.8z"/>
	<path fill="#F4A49E" d="M242.5,181.8c-0.6-1.8-1.2-3.6-2.4-6l-6.6,3c0.6,1.8,1.2,3.6,1.8,5.4L242.5,181.8z"/>
	<path fill="#F4A49E" d="M237.7,170.5c-0.6-1.8-1.8-3.6-2.4-5.4l-6,3c0.6,1.8,1.8,3.6,2.4,5.4L237.7,170.5z"/>
	<path fill="#F4A49E" d="M248.5,205.8c-0.6-1.8-0.6-4.2-1.2-6l-6.6,1.2c0.6,1.8,0.6,3.6,1.2,6L248.5,205.8z"/>
	<path fill="#F4A49E" d="M243.1,213c0.6,1.8,0.6,3.6,0.6,6l6.6-0.6c0-1.8-0.6-4.2-0.6-6L243.1,213z"/>
	<path fill="#F4A49E" d="M219.7,138.8c-1.2-1.8-2.4-3.6-3.6-4.8l-5.4,4.2c1.2,1.8,2.4,3,3.6,4.8L219.7,138.8z"/>
	<path fill="#F4A49E" d="M251.5,229.7c0-1.8,0-4.2-0.6-6l-6.6,0.6c0,1.8,0.6,4.2,0.6,6L251.5,229.7z"/>
	<path fill="#F4A49E" d="M195.8,120.2c1.2,1.2,3,3,4.2,4.2l4.8-4.8c-1.2-1.2-3-3-4.2-4.2L195.8,120.2z"/>
	<path fill="#F4A49E" d="M212.6,129.2c-1.2-1.8-2.4-3-4.2-4.8l-4.8,4.2c1.2,1.2,2.4,3,3.6,4.8L212.6,129.2z"/>
	<path fill="#F4A49E" d="M212.6,340.4l5.4,4.2c1.2-1.8,2.4-3.6,3.6-4.8l-5.4-3.6C214.9,337.5,213.8,339.2,212.6,340.4z"/>
	<path fill="#F4A49E" d="M219.1,330.9l6,3.6c1.2-1.8,2.4-3.6,3-5.4l-6-3.6C221.5,327.3,220.3,329.1,219.1,330.9z"/>
	<path fill="#F4A49E" d="M230.5,310.5l6,3c0.6-1.8,1.8-3.6,2.4-5.4l-6-2.4C231.7,306.9,231.1,308.7,230.5,310.5z"/>
	<path fill="#F4A49E" d="M197.6,358.4l4.8,4.8c1.2-1.2,3-3,4.2-4.2l-4.8-4.8C200.6,355.4,198.8,357.2,197.6,358.4z"/>
	<path fill="#F4A49E" d="M234.7,299.2l6.6,2.4c0.6-1.8,1.2-3.6,1.8-6l-6.6-2.4C235.9,295.6,235.3,297.4,234.7,299.2z"/>
	<path fill="#F4A49E" d="M205.4,350l5.4,4.2c1.2-1.8,2.4-3,3.6-4.8l-5.4-4.2C207.8,347,206.6,348.2,205.4,350z"/>
	<path fill="#F4A49E" d="M225.1,320.7l6,3c1.2-1.8,1.8-3.6,3-5.4l-6-3C226.9,317.1,226.3,318.9,225.1,320.7z"/>
	<path fill="#F4A49E" d="M238.3,288.4l6.6,1.8c0.6-1.8,1.2-4.2,1.8-6l-6.6-1.8C239.5,284.8,238.9,286.6,238.3,288.4z"/>
	<path fill="#F4A49E" d="M243.7,265.6l6.6,1.2c0-1.8,0.6-4.2,0.6-6l-6.6-0.6C244.3,261.4,243.7,263.2,243.7,265.6z"/>
	<path fill="#F4A49E" d="M245.5,236.3c0,1.2,0,3,0,4.2v1.2h6.6v-1.8c0-1.8,0-3,0-4.8L245.5,236.3z"/>
	<path fill="#F4A49E" d="M244.9,253.7l6.6,0.6c0-1.8,0-4.2,0.6-6h-6.6C244.9,250.1,244.9,251.9,244.9,253.7z"/>
	<path fill="#F4A49E" d="M241.3,277l6.6,1.2c0.6-1.8,0.6-4.2,1.2-6l-6.6-1.2C242.5,272.8,241.9,275.2,241.3,277z"/>
	<path fill="#F4A49E" d="M-90.9,204l-6.6-1.2c-0.6,1.8-0.6,4.2-1.2,6l6.6,1.2C-91.5,208.2-91.5,205.8-90.9,204z"/>
	<path fill="#F4A49E" d="M-92.7,215.4l-6.6-1.2c0,1.8-0.6,4.2-0.6,6l6.6,0.6C-93.3,219.6-93.3,217.8-92.7,215.4z"/>
	<path fill="#F4A49E" d="M-94.5,244.7c0-1.2,0-3,0-4.2v-1.2h-6.6v1.8c0,1.8,0,3,0,4.8L-94.5,244.7z"/>
	<path fill="#F4A49E" d="M-47.2,122.6l-4.8-4.8c-1.2,1.2-3,3-4.2,4.2l4.8,4.8C-49.6,125.6-48.4,123.8-47.2,122.6z"/>
	<path fill="#F4A49E" d="M-94.5,227.3l-6.6-0.6c0,1.8,0,4.2-0.6,6h6.6C-94.5,230.9-94.5,229.1-94.5,227.3z"/>
	<path fill="#F4A49E" d="M-83.1,302.1c-0.6-1.8-1.2-3.6-1.8-5.4l-6.6,2.4c0.6,1.8,1.2,3.6,2.4,6L-83.1,302.1z"/>
	<path fill="#F4A49E" d="M-87.3,310.5c0.6,1.8,1.8,3.6,2.4,5.4l6-3c-0.6-1.8-1.8-3.6-2.4-5.4L-87.3,310.5z"/>
	<path fill="#F4A49E" d="M-62.2,351.8c1.2,1.8,2.4,3,4.2,4.8l5.4-4.2c-1.2-1.2-2.4-3-3.6-4.8L-62.2,351.8z"/>
	<path fill="#F4A49E" d="M-101.1,251.3c0,1.8,0,4.2,0.6,6l6.6-0.6c0-1.8-0.6-4.2-0.6-6L-101.1,251.3z"/>
	<path fill="#F4A49E" d="M-90.3,280c-0.6-1.8-0.6-3.6-1.2-6l-6.6,1.2c0.6,1.8,0.6,4.2,1.2,6L-90.3,280z"/>
	<path fill="#F4A49E" d="M-44.8,360.8c-1.2-1.2-3-3-4.2-4.2l-4.8,4.8c1.2,1.2,3,3,4.2,4.2L-44.8,360.8z"/>
	<path fill="#F4A49E" d="M-81.9,321.3c1.2,1.8,1.8,3.6,3,5.4l6-3.6c-1.2-1.8-1.8-3.6-3-5.4L-81.9,321.3z"/>
	<path fill="#F4A49E" d="M-75.9,332.1c1.2,1.8,2.4,3.6,3,5.4l5.4-3.6c-1.2-1.8-2.4-3.6-3-4.8L-75.9,332.1z"/>
	<path fill="#F4A49E" d="M-69.3,342.2c1.2,1.8,2.4,3.6,3.6,4.8l5.4-4.2c-1.2-1.8-2.4-3-3.6-4.8L-69.3,342.2z"/>
	<path fill="#F4A49E" d="M-92.7,268c-0.6-1.8-0.6-3.6-0.6-6l-6.6,0.6c0,1.8,0.6,4.2,0.6,6L-92.7,268z"/>
	<path fill="#F4A49E" d="M-87.9,192.6l-6.6-1.8c-0.6,1.8-1.2,4.2-1.8,6l6.6,1.8C-89.1,196.2-88.5,194.4-87.9,192.6z"/>
	<path fill="#F4A49E" d="M-74.7,160.3l-6-3c-1.2,1.8-1.8,3.6-3,5.4l6,3C-76.5,163.9-75.3,162.1-74.7,160.3z"/>
	<path fill="#F4A49E" d="M-84.3,181.8l-6.6-2.4c-0.6,1.8-1.2,3.6-1.8,6l6.6,2.4C-85.5,185.4-84.9,183.6-84.3,181.8z"/>
	<path fill="#F4A49E" d="M-55,131l-5.4-4.2c-1.2,1.8-2.4,3-3.6,4.8l5.4,4.2C-57.4,134-56.2,132.8-55,131z"/>
	<path fill="#F4A49E" d="M-62.2,140.6l-5.4-4.2c-1.2,1.8-2.4,3.6-3.6,4.8l5.4,3.6C-64.5,143.5-63.3,141.8-62.2,140.6z"/>
	<path fill="#F4A49E" d="M-68.7,150.1l-6-3.6c-1.2,1.8-2.4,3.6-3,5.4l6,3.6C-70.5,153.7-69.9,151.9-68.7,150.1z"/>
	<path fill="#F4A49E" d="M-80.1,170.5l-6-3c-0.6,1.8-1.8,3.6-2.4,5.4l6,2.4C-81.3,174.1-80.7,172.3-80.1,170.5z"/>
	<path fill="#F4A49E" d="M-87.3,291.4c-0.6-1.8-1.2-3.6-1.8-5.4l-6.6,1.8c0.6,1.8,1.2,4.2,1.8,6L-87.3,291.4z"/>
	<path fill="#F4A49E" d="M75.5,175.3c-35.9,0-65.2,29.3-65.2,65.2s29.3,65.2,65.2,65.2s65.2-29.3,65.2-65.2S111.4,175.3,75.5,175.3z
		 M75.5,299.2c-32.3,0-58.7-26.3-58.7-58.7s26.3-58.7,58.7-58.7s58.7,26.3,58.7,58.7S107.8,299.2,75.5,299.2z"/>
	<path fill="#F4A49E" d="M80.3,282.4l0.6,6.6c2.4,0,4.2-0.6,6.6-1.2l-1.8-6.6C83.9,281.8,82.1,281.8,80.3,282.4z"/>
	<path fill="#F4A49E" d="M91.1,279.4l2.4,6c1.8-0.6,4.2-1.8,6-3l-3.6-6C94.7,278.2,92.9,278.8,91.1,279.4z"/>
	<path fill="#F4A49E" d="M108.4,266.2l5.4,4.2c1.2-1.8,2.4-3.6,3.6-5.4l-6-3.6C110.8,263.2,109.6,265,108.4,266.2z"/>
	<path fill="#F4A49E" d="M114.4,256.7l6,2.4c0.6-1.8,1.8-4.2,1.8-6l-6.6-1.8C115.6,253.1,115,254.9,114.4,256.7z"/>
	<path fill="#F4A49E" d="M124,240.5h-6.6c0,1.8,0,3.6-0.6,5.4l6.6,0.6C124,244.7,124,242.9,124,240.5z"/>
	<path fill="#F4A49E" d="M100.6,274l4.2,5.4c1.8-1.2,3.6-3,4.8-4.2l-4.8-4.8C103.6,271.6,102.4,272.8,100.6,274z"/>
	<path fill="#F4A49E" d="M40.8,205.8l4.8,4.8c1.2-1.2,3-2.4,4.2-3.6l-4.2-5.4C44.4,202.8,42.6,204.6,40.8,205.8z"/>
	<path fill="#F4A49E" d="M26.4,240.5H33c0-1.8,0-3.6,0.6-5.4l-6.6-0.6C26.4,236.3,26.4,238.1,26.4,240.5z"/>
	<path fill="#F4A49E" d="M33,216l6,3.6c1.2-1.8,1.8-3,3-4.8l-5.4-4.2C35.4,212.4,34.2,214.2,33,216z"/>
	<path fill="#F4A49E" d="M28.2,227.9l6.6,1.8c0.6-1.8,1.2-3.6,1.8-5.4l-6-2.4C29.4,223.7,28.8,225.5,28.2,227.9z"/>
	<path fill="#F4A49E" d="M62.9,193.2l1.8,6.6c1.8-0.6,3.6-0.6,5.4-1.2l-0.6-6.6C67.1,192,65.3,192.6,62.9,193.2z"/>
	<path fill="#F4A49E" d="M51,198l3.6,6c1.8-1.2,3-1.8,4.8-2.4l-2.4-6C55.2,196.2,52.8,196.8,51,198z"/>
	<path fill="#F4A49E" d="M75.5,101.7c-76.6,0-138.8,62.2-138.8,138.8S-1.1,379.3,75.5,379.3s138.8-62.2,138.8-138.8
		S152.1,101.7,75.5,101.7z M75.5,376.4c-74.8,0-135.9-61-135.9-135.9s61-135.9,135.9-135.9s135.9,61,135.9,135.9
		S150.3,376.4,75.5,376.4z"/>
</g>
</svg>
