<?xml version="1.0" encoding="utf-8"?>
<!-- Generator: Adobe Illustrator 18.1.0, SVG Export Plug-In . SVG Version: 6.00 Build 0)  -->
<svg version="1.1" id="Layer_1" xmlns="http://www.w3.org/2000/svg" xmlns:xlink="http://www.w3.org/1999/xlink" x="0px" y="0px"
	 viewBox="0 43 640 395" enable-background="new 0 43 640 395" xml:space="preserve">
<g>
	<path fill="#F4A49E" d="M46,222.3c-10.2,0-18.5,8.4-18.5,18.5c0,10.2,8.4,18.5,18.5,18.5s18.5-8.4,18.5-18.5
		C64.5,230.6,56.2,222.3,46,222.3z M46,252.2c-6.6,0-11.4-5.4-11.4-11.4S40,229.4,46,229.4s11.4,5.4,11.4,11.4S52.6,252.2,46,252.2z
		"/>
	<path fill="#F4A49E" d="M628,43H12C5.4,43,0,48.4,0,55v371c0,6.6,5.4,12,12,12h616c6.6,0,12-5.4,12-12V55.5
		C640,48.4,634.6,43,628,43z M633.4,426c0,3-2.4,5.4-5.4,5.4H12c-3,0-5.4-2.4-5.4-5.4V55.5c0-3,2.4-5.4,5.4-5.4h616
		c3,0,5.4,2.4,5.4,5.4V426z"/>
	<path fill="#F4A49E" d="M595.8,64.5H95c-6.6,0-12,5.4-12,12v328.7c0,6.6,5.4,12,12,12h500.8c6.6,0,12-5.4,12-12V76.5
		C607.7,69.9,602.4,64.5,595.8,64.5z M601.2,405.1c0,3-2.4,5.4-5.4,5.4H95c-3,0-5.4-2.4-5.4-5.4V76.5c0-3,2.4-5.4,5.4-5.4h500.8
		c3,0,5.4,2.4,5.4,5.4V405.1L601.2,405.1z"/>
	<rect x="102.8" y="305.9" fill="#F4A49E" width="6.6" height="6"/>
	<rect x="102.8" y="341.8" fill="#F4A49E" width="6.6" height="6"/>
	<rect x="102.8" y="317.9" fill="#F4A49E" width="6.6" height="6"/>
	<rect x="102.8" y="329.8" fill="#F4A49E" width="6.6" height="6"/>
	<rect x="102.8" y="353.7" fill="#F4A49E" width="6.6" height="6"/>
	<rect x="102.8" y="186.4" fill="#F4A49E" width="6.6" height="6"/>
	<path fill="#F4A49E" d="M110,388.4l-6.6,2.4c1.2,2.4,3,4.8,5.4,6l3-6C111.1,390.2,110,389.6,110,388.4z"/>
	<rect x="102.8" y="377.6" fill="#F4A49E" width="6.6" height="6"/>
	<rect x="102.8" y="365.7" fill="#F4A49E" width="6.6" height="6"/>
	<rect x="116.5" y="391.4" fill="#F4A49E" width="6" height="6.6"/>
	<rect x="102.8" y="210.3" fill="#F4A49E" width="6.6" height="6"/>
	<rect x="102.8" y="294" fill="#F4A49E" width="6.6" height="6"/>
	<rect x="102.8" y="234.2" fill="#F4A49E" width="6.6" height="6"/>
	<rect x="102.8" y="198.4" fill="#F4A49E" width="6.6" height="6"/>
	<rect x="102.8" y="222.3" fill="#F4A49E" width="6.6" height="6"/>
	<rect x="102.8" y="282" fill="#F4A49E" width="6.6" height="6"/>
	<rect x="102.8" y="246.2" fill="#F4A49E" width="6.6" height="6"/>
	<rect x="102.8" y="270.1" fill="#F4A49E" width="6.6" height="6"/>
	<rect x="102.8" y="258.1" fill="#F4A49E" width="6.6" height="6"/>
	<path fill="#F4A49E" d="M117.7,83.6h-3l0,0c-1.2,0-2.4,0-3.6,0.6l2.4,6.6c0.6,0,1.2,0,1.8,0l0,0h3v-7.2
		C118.3,83.6,117.7,83.6,117.7,83.6z"/>
	<rect x="212.1" y="391.4" fill="#F4A49E" width="6" height="6.6"/>
	<rect x="236" y="391.4" fill="#F4A49E" width="6" height="6.6"/>
	<rect x="259.9" y="391.4" fill="#F4A49E" width="6" height="6.6"/>
	<rect x="224.1" y="391.4" fill="#F4A49E" width="6" height="6.6"/>
	<rect x="248" y="391.4" fill="#F4A49E" width="6" height="6.6"/>
	<rect x="271.9" y="391.4" fill="#F4A49E" width="6" height="6.6"/>
	<rect x="307.7" y="391.4" fill="#F4A49E" width="6" height="6.6"/>
	<rect x="123.7" y="83.6" fill="#F4A49E" width="6" height="6.6"/>
	<rect x="283.8" y="391.4" fill="#F4A49E" width="6" height="6.6"/>
	<rect x="295.8" y="391.4" fill="#F4A49E" width="6" height="6.6"/>
	<rect x="200.2" y="391.4" fill="#F4A49E" width="6" height="6.6"/>
	<rect x="140.4" y="391.4" fill="#F4A49E" width="6" height="6.6"/>
	<rect x="128.5" y="391.4" fill="#F4A49E" width="6" height="6.6"/>
	<rect x="147.6" y="83.6" fill="#F4A49E" width="6" height="6.6"/>
	<rect x="135.6" y="83.6" fill="#F4A49E" width="6" height="6.6"/>
	<rect x="188.2" y="391.4" fill="#F4A49E" width="6" height="6.6"/>
	<rect x="152.4" y="391.4" fill="#F4A49E" width="6" height="6.6"/>
	<rect x="176.3" y="391.4" fill="#F4A49E" width="6" height="6.6"/>
	<rect x="164.3" y="391.4" fill="#F4A49E" width="6" height="6.6"/>
	<rect x="243.2" y="83.6" fill="#F4A49E" width="6" height="6.6"/>
	<rect x="374.7" y="83.6" fill="#F4A49E" width="6" height="6.6"/>
	<rect x="362.7" y="83.6" fill="#F4A49E" width="6" height="6.6"/>
	<rect x="350.8" y="83.6" fill="#F4A49E" width="6" height="6.6"/>
	<rect x="386.6" y="83.6" fill="#F4A49E" width="6" height="6.6"/>
	<rect x="314.9" y="83.6" fill="#F4A49E" width="6" height="6.6"/>
	<rect x="303" y="83.6" fill="#F4A49E" width="6" height="6.6"/>
	<rect x="291" y="83.6" fill="#F4A49E" width="6" height="6.6"/>
	<rect x="326.9" y="83.6" fill="#F4A49E" width="6" height="6.6"/>
	<rect x="338.8" y="83.6" fill="#F4A49E" width="6" height="6.6"/>
	<rect x="398.6" y="83.6" fill="#F4A49E" width="6" height="6.6"/>
	<rect x="470.3" y="83.6" fill="#F4A49E" width="6" height="6.6"/>
	<rect x="482.2" y="83.6" fill="#F4A49E" width="6" height="6.6"/>
	<rect x="494.2" y="83.6" fill="#F4A49E" width="6" height="6.6"/>
	<rect x="506.1" y="83.6" fill="#F4A49E" width="6" height="6.6"/>
	<rect x="422.5" y="83.6" fill="#F4A49E" width="6" height="6.6"/>
	<rect x="410.5" y="83.6" fill="#F4A49E" width="6" height="6.6"/>
	<rect x="434.4" y="83.6" fill="#F4A49E" width="6" height="6.6"/>
	<rect x="446.4" y="83.6" fill="#F4A49E" width="6" height="6.6"/>
	<rect x="102.8" y="174.5" fill="#F4A49E" width="6.6" height="6"/>
	<rect x="458.3" y="83.6" fill="#F4A49E" width="6" height="6.6"/>
	<path fill="#F4A49E" d="M109.4,94.4c0-0.6,0-1.2,0.6-1.8l-6-3c-0.6,1.8-1.2,3.6-1.2,5.4v2.4h6.6V94.4z"/>
	<rect x="102.8" y="114.7" fill="#F4A49E" width="6.6" height="6"/>
	<rect x="279.1" y="83.6" fill="#F4A49E" width="6" height="6.6"/>
	<rect x="159.6" y="83.6" fill="#F4A49E" width="6" height="6.6"/>
	<rect x="102.8" y="150.6" fill="#F4A49E" width="6.6" height="6"/>
	<rect x="171.5" y="83.6" fill="#F4A49E" width="6" height="6.6"/>
	<rect x="102.8" y="162.5" fill="#F4A49E" width="6.6" height="6"/>
	<rect x="102.8" y="138.6" fill="#F4A49E" width="6.6" height="6"/>
	<rect x="102.8" y="126.7" fill="#F4A49E" width="6.6" height="6"/>
	<rect x="102.8" y="102.8" fill="#F4A49E" width="6.6" height="6"/>
	<rect x="255.2" y="83.6" fill="#F4A49E" width="6" height="6.6"/>
	<rect x="319.7" y="391.4" fill="#F4A49E" width="6" height="6.6"/>
	<rect x="231.3" y="83.6" fill="#F4A49E" width="6" height="6.6"/>
	<rect x="267.1" y="83.6" fill="#F4A49E" width="6" height="6.6"/>
	<rect x="183.5" y="83.6" fill="#F4A49E" width="6" height="6.6"/>
	<rect x="219.3" y="83.6" fill="#F4A49E" width="6" height="6.6"/>
	<rect x="195.4" y="83.6" fill="#F4A49E" width="6" height="6.6"/>
	<rect x="207.4" y="83.6" fill="#F4A49E" width="6" height="6.6"/>
	<rect x="580.8" y="251" fill="#F4A49E" width="6.6" height="6"/>
	<rect x="553.9" y="83.6" fill="#F4A49E" width="6" height="6.6"/>
	<rect x="558.7" y="391.4" fill="#F4A49E" width="6" height="6.6"/>
	<rect x="542" y="83.6" fill="#F4A49E" width="6" height="6.6"/>
	<rect x="565.9" y="83.6" fill="#F4A49E" width="6" height="6.6"/>
	<rect x="546.8" y="391.4" fill="#F4A49E" width="6" height="6.6"/>
	<path fill="#F4A49E" d="M580.8,387.2c0,1.2-0.6,2.4-1.2,3l4.8,4.8c1.8-2.4,3-4.8,3-7.8V383h-6.6V387.2L580.8,387.2z"/>
	<rect x="580.8" y="370.5" fill="#F4A49E" width="6.6" height="6"/>
	<polygon fill="#F4A49E" points="570.7,391.4 570.7,398 576.1,398 576.7,398 576.1,391.4 	"/>
	<rect x="580.8" y="358.5" fill="#F4A49E" width="6.6" height="6"/>
	<rect x="534.8" y="391.4" fill="#F4A49E" width="6" height="6.6"/>
	<rect x="510.9" y="391.4" fill="#F4A49E" width="6" height="6.6"/>
	<rect x="463.1" y="391.4" fill="#F4A49E" width="6" height="6.6"/>
	<rect x="475.1" y="391.4" fill="#F4A49E" width="6" height="6.6"/>
	<rect x="451.2" y="391.4" fill="#F4A49E" width="6" height="6.6"/>
	<rect x="487" y="391.4" fill="#F4A49E" width="6" height="6.6"/>
	<rect x="518.1" y="83.6" fill="#F4A49E" width="6" height="6.6"/>
	<rect x="499" y="391.4" fill="#F4A49E" width="6" height="6.6"/>
	<rect x="522.9" y="391.4" fill="#F4A49E" width="6" height="6.6"/>
	<rect x="530" y="83.6" fill="#F4A49E" width="6" height="6.6"/>
	<rect x="580.8" y="346.6" fill="#F4A49E" width="6.6" height="6"/>
	<rect x="580.8" y="107.5" fill="#F4A49E" width="6.6" height="6"/>
	<rect x="580.8" y="334.6" fill="#F4A49E" width="6.6" height="6"/>
	<rect x="580.8" y="155.3" fill="#F4A49E" width="6.6" height="6"/>
	<rect x="580.8" y="143.4" fill="#F4A49E" width="6.6" height="6"/>
	<rect x="580.8" y="191.2" fill="#F4A49E" width="6.6" height="6"/>
	<rect x="580.8" y="179.2" fill="#F4A49E" width="6.6" height="6"/>
	<rect x="580.8" y="95.6" fill="#F4A49E" width="6.6" height="6"/>
	<rect x="580.8" y="203.2" fill="#F4A49E" width="6.6" height="6"/>
	<rect x="439.2" y="391.4" fill="#F4A49E" width="6" height="6.6"/>
	<rect x="580.8" y="119.5" fill="#F4A49E" width="6.6" height="6"/>
	<rect x="580.8" y="131.4" fill="#F4A49E" width="6.6" height="6"/>
	<rect x="580.8" y="167.3" fill="#F4A49E" width="6.6" height="6"/>
	<rect x="580.8" y="286.8" fill="#F4A49E" width="6.6" height="6"/>
	<rect x="580.8" y="310.7" fill="#F4A49E" width="6.6" height="6"/>
	<rect x="580.8" y="298.8" fill="#F4A49E" width="6.6" height="6"/>
	<rect x="580.8" y="215.1" fill="#F4A49E" width="6.6" height="6"/>
	<rect x="580.8" y="322.7" fill="#F4A49E" width="6.6" height="6"/>
	<rect x="580.8" y="227.1" fill="#F4A49E" width="6.6" height="6"/>
	<rect x="580.8" y="239" fill="#F4A49E" width="6.6" height="6"/>
	<rect x="580.8" y="274.9" fill="#F4A49E" width="6.6" height="6"/>
	<rect x="580.8" y="262.9" fill="#F4A49E" width="6.6" height="6"/>
	<path fill="#F4A49E" d="M585,87.8c-1.8-2.4-4.2-3.6-7.2-4.2l-1.2,6.6c1.2,0,2.4,0.6,3,1.8L585,87.8z"/>
	<rect x="391.4" y="391.4" fill="#F4A49E" width="6" height="6.6"/>
	<rect x="379.5" y="391.4" fill="#F4A49E" width="6" height="6.6"/>
	<rect x="415.3" y="391.4" fill="#F4A49E" width="6" height="6.6"/>
	<rect x="343.6" y="391.4" fill="#F4A49E" width="6" height="6.6"/>
	<rect x="403.4" y="391.4" fill="#F4A49E" width="6" height="6.6"/>
	<rect x="355.6" y="391.4" fill="#F4A49E" width="6" height="6.6"/>
	<rect x="427.3" y="391.4" fill="#F4A49E" width="6" height="6.6"/>
	<rect x="331.7" y="391.4" fill="#F4A49E" width="6" height="6.6"/>
	<rect x="367.5" y="391.4" fill="#F4A49E" width="6" height="6.6"/>
	<path fill="#F4A49E" d="M619.7,225.3c-1.8,0-3.6,1.8-3.6,3.6V254c0,1.8,1.8,3.6,3.6,3.6s3.6-1.8,3.6-3.6v-25.1
		C622.7,226.5,621.5,225.3,619.7,225.3z"/>
	
		<rect x="262.1" y="325.2" transform="matrix(-0.3037 -0.9528 0.9528 -0.3037 33.291 680.7431)" fill="#F4A49E" width="6.6" height="6"/>
	<path fill="#F4A49E" d="M360.3,141.6h4.2V135h-4.2c-1.8,0-3,1.2-3,2.4l-0.6,1.8l3.6,1.2V141.6z"/>
	
		<rect x="351.3" y="157.1" transform="matrix(0.9634 0.2681 -0.2681 0.9634 55.9124 -89.2119)" fill="#F4A49E" width="6.6" height="6"/>
	
		<rect x="347.8" y="168.4" transform="matrix(0.9634 0.2681 -0.2681 0.9634 58.8121 -87.8408)" fill="#F4A49E" width="6.6" height="6"/>
	
		<rect x="344.9" y="179.9" transform="matrix(-0.2676 0.9635 -0.9635 -0.2676 617.5323 -102.9624)" fill="#F4A49E" width="6" height="6.6"/>
	
		<rect x="350.7" y="334.5" transform="matrix(0.9417 -0.3364 0.3364 0.9417 -93.0379 138.682)" fill="#F4A49E" width="6" height="6.6"/>
	
		<rect x="363.5" y="215.3" transform="matrix(-0.4903 -0.8716 0.8716 -0.4903 356.3956 644.9783)" fill="#F4A49E" width="6.6" height="6"/>
	
		<rect x="354.8" y="144.9" transform="matrix(0.2676 -0.9635 0.9635 0.2676 119.2467 453.3426)" fill="#F4A49E" width="6" height="6.6"/>
	
		<rect x="353" y="220.8" transform="matrix(-0.4906 -0.8714 0.8714 -0.4906 336.1498 644.0832)" fill="#F4A49E" width="6.6" height="6"/>
	<rect x="370.5" y="134.4" fill="#F4A49E" width="6" height="6.6"/>
	
		<rect x="311.5" y="196.1" transform="matrix(0.8912 0.4536 -0.4536 0.8912 124.6479 -120.9493)" fill="#F4A49E" width="6" height="6.6"/>
	<rect x="340" y="314.3" fill="#F4A49E" width="6.6" height="6"/>
	
		<rect x="311.3" y="244.5" transform="matrix(-0.4906 -0.8714 0.8714 -0.4906 253.3116 643.0341)" fill="#F4A49E" width="6.6" height="6"/>
	
		<rect x="239.2" y="332.4" transform="matrix(-0.3037 -0.9528 0.9528 -0.3037 -3.3719 668.3335)" fill="#F4A49E" width="6.6" height="6"/>
	
		<rect x="300.7" y="190.6" transform="matrix(0.891 0.454 -0.454 0.891 121.152 -116.7556)" fill="#F4A49E" width="6" height="6.6"/>
	
		<rect x="362" y="330.3" transform="matrix(0.9415 -0.337 0.337 0.9415 -91.0803 142.5243)" fill="#F4A49E" width="6" height="6.6"/>
	
		<rect x="250.7" y="328.8" transform="matrix(-0.3037 -0.9528 0.9528 -0.3037 14.9342 674.61)" fill="#F4A49E" width="6.6" height="6"/>
	<path fill="#F4A49E" d="M346.6,302.9c0-1.2-0.6-1.8-1.2-3c-0.6-0.6-1.8-0.6-3-0.6l-1.2,0.6l1.2,3H340v4.8h6.6V302.9z"/>
	<rect x="340" y="326.3" fill="#F4A49E" width="6.6" height="6"/>
	
		<rect x="343" y="226.4" transform="matrix(0.8714 -0.4906 0.4906 0.8714 -68.1999 199.2746)" fill="#F4A49E" width="6" height="6.6"/>
	
		<rect x="259.4" y="273.7" transform="matrix(0.4906 0.8714 -0.8714 0.4906 374.9349 -87.9688)" fill="#F4A49E" width="6.6" height="6"/>
	
		<rect x="341.9" y="191.3" transform="matrix(0.2675 -0.9636 0.9636 0.2675 65.0774 474.8487)" fill="#F4A49E" width="6" height="6.6"/>
	<polygon fill="#F4A49E" points="336.4,215.1 339.4,209.1 338.2,207.9 344.2,209.7 346,203.7 339.4,202 337.6,207.9 334,206.1 
		331.1,212.1 	"/>
	
		<rect x="321.6" y="202.1" transform="matrix(-0.4541 0.8909 -0.8909 -0.4541 655.0995 8.7879)" fill="#F4A49E" width="6.6" height="6"/>
	<rect x="430.3" y="134.4" fill="#F4A49E" width="6" height="6.6"/>
	<rect x="454.2" y="134.4" fill="#F4A49E" width="6" height="6.6"/>
	
		<rect x="301" y="249.9" transform="matrix(0.8714 -0.4906 0.4906 0.8714 -85.1015 181.7133)" fill="#F4A49E" width="6" height="6.6"/>
	<path fill="#F4A49E" d="M346.6,344.2l-0.6-2.4h0.6v-3.6H340v3.6c0,1.2,0.6,2.4,1.2,3s1.2,0.6,1.8,0.6s0.6,0,1.2,0L346.6,344.2z"/>
	
		<rect x="467.8" y="156.7" transform="matrix(-0.4906 -0.8714 0.8714 -0.4906 563.0195 648.6296)" fill="#F4A49E" width="6.6" height="6"/>
	<rect x="442.2" y="134.4" fill="#F4A49E" width="6" height="6.6"/>
	
		<rect x="296.4" y="314.4" transform="matrix(-0.3035 -0.9528 0.9528 -0.3035 88.2099 699.2603)" fill="#F4A49E" width="6.6" height="6"/>
	
		<rect x="319.1" y="306.6" transform="matrix(-0.3027 -0.9531 0.9531 -0.3027 124.8912 710.5611)" fill="#F4A49E" width="6.6" height="6"/>
	
		<rect x="307.8" y="310.8" transform="matrix(-0.3037 -0.9528 0.9528 -0.3037 106.617 705.5623)" fill="#F4A49E" width="6.6" height="6"/>
	
		<rect x="321.8" y="238.9" transform="matrix(-0.4906 -0.8714 0.8714 -0.4906 273.7697 643.9068)" fill="#F4A49E" width="6.6" height="6"/>
	<rect x="478.1" y="134.4" fill="#F4A49E" width="6" height="6.6"/>
	<rect x="466.1" y="134.4" fill="#F4A49E" width="6" height="6.6"/>
	
		<rect x="331.9" y="232.8" transform="matrix(-0.4906 -0.8714 0.8714 -0.4906 294.2109 643.5633)" fill="#F4A49E" width="6.6" height="6"/>
	
		<rect x="394.3" y="197.3" transform="matrix(0.4903 0.8716 -0.8716 0.4903 377.2848 -244.4172)" fill="#F4A49E" width="6.6" height="6"/>
	
		<rect x="280.2" y="261.8" transform="matrix(0.8716 -0.4902 0.4902 0.8716 -93.5976 172.8714)" fill="#F4A49E" width="6" height="6.6"/>
	<rect x="394.4" y="134.4" fill="#F4A49E" width="6" height="6.6"/>
	
		<rect x="373.9" y="209.7" transform="matrix(-0.4906 -0.8714 0.8714 -0.4906 376.8907 645.6541)" fill="#F4A49E" width="6.6" height="6"/>
	<rect x="382.4" y="134.4" fill="#F4A49E" width="6" height="6.6"/>
	
		<rect x="384" y="203.6" transform="matrix(-0.4906 -0.8714 0.8714 -0.4906 397.3293 645.4878)" fill="#F4A49E" width="6.6" height="6"/>
	
		<rect x="273.5" y="321.7" transform="matrix(-0.3037 -0.9528 0.9528 -0.3037 51.5971 687.0195)" fill="#F4A49E" width="6.6" height="6"/>
	<rect x="418.3" y="134.4" fill="#F4A49E" width="6" height="6.6"/>
	
		<rect x="426.3" y="179.4" transform="matrix(-0.8714 0.4906 -0.4906 -0.8714 893.012 131.2542)" fill="#F4A49E" width="6" height="6.6"/>
	
		<rect x="405.1" y="191.6" transform="matrix(-0.4903 -0.8716 0.8716 -0.4903 439.0471 646.0465)" fill="#F4A49E" width="6.6" height="6"/>
	
		<rect x="290.9" y="255.6" transform="matrix(0.8713 -0.4908 0.4908 0.8713 -89.2438 177.5809)" fill="#F4A49E" width="6" height="6.6"/>
	
		<rect x="285" y="318" transform="matrix(-0.3037 -0.9528 0.9528 -0.3037 69.954 693.1526)" fill="#F4A49E" width="6.6" height="6"/>
	<rect x="406.3" y="134.4" fill="#F4A49E" width="6" height="6.6"/>
	<rect x="467.3" y="384.2" fill="#F4A49E" width="6.6" height="6"/>
	<rect x="467.3" y="324.5" fill="#F4A49E" width="6.6" height="6"/>
	
		<rect x="415.4" y="185.6" transform="matrix(0.4906 0.8714 -0.8714 0.4906 377.6385 -268.8015)" fill="#F4A49E" width="6.6" height="6"/>
	
		<rect x="406.8" y="315.1" transform="matrix(-0.3374 -0.9414 0.9414 -0.3374 249.0592 811.5384)" fill="#F4A49E" width="6.6" height="6"/>
	<rect x="467.3" y="312.5" fill="#F4A49E" width="6.6" height="6"/>
	
		<rect x="384.3" y="322.7" transform="matrix(0.9415 -0.337 0.337 0.9415 -87.2101 149.584)" fill="#F4A49E" width="6" height="6.6"/>
	
		<rect x="477.9" y="150.6" transform="matrix(-0.4906 -0.8714 0.8714 -0.4906 583.4607 648.2861)" fill="#F4A49E" width="6.6" height="6"/>
	<path fill="#F4A49E" d="M201.4,138l-4.2-1.8l1.8,0.6c0.6-2.4,1.2-4.8,1.2-7.2c0-0.6,0-1.2,0-1.8l-6.6,0.6c0,0.6,0,0.6,0,1.2
		c0,1.8,0,3.6-0.6,4.8l3.6,1.2l-3,5.4l-3-1.8c-1.2,1.2-2.4,2.4-3.6,3.6l4.2,5.4c1.8-1.2,3.6-3,4.8-4.8l2.4,1.2L201.4,138z"/>
	
		<rect x="395.6" y="318.5" transform="matrix(-0.3365 -0.9417 0.9417 -0.3365 230.2909 805.3567)" fill="#F4A49E" width="6.6" height="6"/>
	<rect x="490" y="134.4" fill="#F4A49E" width="6" height="6.6"/>
	
		<rect x="488.4" y="145.1" transform="matrix(-0.4906 -0.8714 0.8714 -0.4906 603.9188 649.1589)" fill="#F4A49E" width="6.6" height="6"/>
	<polygon fill="#F4A49E" points="502,138 497.8,140.4 501.4,146.4 506.1,143.4 504.9,141.6 507.9,141.6 507.9,134.4 502,134.4 	"/>
	<polygon fill="#F4A49E" points="470.3,300 467.9,293.4 462.5,295.2 464.3,301.8 467.3,301.2 467.3,306.5 473.9,306.5 473.9,300.6 
		468.5,300.6 	"/>
	
		<rect x="446.9" y="167.9" transform="matrix(0.8715 -0.4904 0.4904 0.8715 -26.1486 242.6386)" fill="#F4A49E" width="6" height="6.6"/>
	
		<rect x="417.9" y="311" transform="matrix(-0.3367 -0.9416 0.9416 -0.3367 267.4021 816.2706)" fill="#F4A49E" width="6.6" height="6"/>
	
		<rect x="440.7" y="302.6" transform="matrix(-0.3365 -0.9417 0.9417 -0.3365 305.5998 826.6136)" fill="#F4A49E" width="6.6" height="6"/>
	
		<rect x="451.7" y="298.6" transform="matrix(-0.3374 -0.9414 0.9414 -0.3374 324.6107 831.6485)" fill="#F4A49E" width="6.6" height="6"/>
	
		<rect x="436.8" y="173.7" transform="matrix(0.8716 -0.4902 0.4902 0.8716 -30.3136 238.3424)" fill="#F4A49E" width="6" height="6.6"/>
	
		<rect x="429" y="306.9" transform="matrix(-0.3374 -0.9414 0.9414 -0.3374 286.4513 821.46)" fill="#F4A49E" width="6.6" height="6"/>
	<rect x="467.3" y="360.3" fill="#F4A49E" width="6.6" height="6"/>
	<rect x="467.3" y="348.4" fill="#F4A49E" width="6.6" height="6"/>
	<rect x="467.3" y="336.4" fill="#F4A49E" width="6.6" height="6"/>
	<rect x="467.3" y="372.3" fill="#F4A49E" width="6.6" height="6"/>
	
		<rect x="457.6" y="161.8" transform="matrix(0.8714 -0.4906 0.4906 0.8714 -21.7461 247.2213)" fill="#F4A49E" width="6" height="6.6"/>
	<rect x="208" y="315.5" fill="#F4A49E" width="6.6" height="6"/>
	
		<rect x="236.2" y="158.3" transform="matrix(-0.4541 0.8909 -0.8909 -0.4541 491.8754 21.1685)" fill="#F4A49E" width="6.6" height="6"/>
	
		<rect x="373.4" y="326.1" transform="matrix(0.9414 -0.3372 0.3372 0.9414 -89.0476 146.2112)" fill="#F4A49E" width="6" height="6.6"/>
	
		<rect x="246.8" y="163.9" transform="matrix(-0.4541 0.8909 -0.8909 -0.4541 512.3908 19.8079)" fill="#F4A49E" width="6.6" height="6"/>
	
		<rect x="238.6" y="285.4" transform="matrix(-0.4903 -0.8716 0.8716 -0.4903 109.1157 640.7048)" fill="#F4A49E" width="6.6" height="6"/>
	
		<rect x="217.5" y="297.4" transform="matrix(-0.4906 -0.8714 0.8714 -0.4906 67.3529 640.2325)" fill="#F4A49E" width="6.6" height="6"/>
	
		<rect x="216.3" y="339.7" transform="matrix(-0.3037 -0.9528 0.9528 -0.3037 -40.2393 656.0258)" fill="#F4A49E" width="6.6" height="6"/>
	
		<rect x="226.1" y="153.1" transform="matrix(-0.4534 0.8913 -0.8913 -0.4534 472.4898 22.4587)" fill="#F4A49E" width="6.6" height="6"/>
	
		<rect x="330.6" y="303.3" transform="matrix(0.3037 0.9528 -0.9528 0.3037 524.2812 -104.8637)" fill="#F4A49E" width="6.6" height="6"/>
	
		<rect x="268.6" y="174.9" transform="matrix(-0.8912 -0.4536 0.4536 -0.8912 432.8206 460.1893)" fill="#F4A49E" width="6" height="6.6"/>
	
		<rect x="269.6" y="268.2" transform="matrix(-0.4906 -0.8714 0.8714 -0.4906 170.4778 641.9847)" fill="#F4A49E" width="6.6" height="6"/>
	
		<rect x="279.2" y="179.8" transform="matrix(0.891 0.454 -0.454 0.891 113.8764 -108.142)" fill="#F4A49E" width="6" height="6.6"/>
	
		<rect x="257.6" y="169.2" transform="matrix(-0.891 -0.454 0.454 -0.891 414.4601 444.5442)" fill="#F4A49E" width="6" height="6.6"/>
	
		<rect x="249" y="279.9" transform="matrix(-0.4906 -0.8714 0.8714 -0.4906 129.5762 641.6182)" fill="#F4A49E" width="6.6" height="6"/>
	
		<rect x="227.8" y="336" transform="matrix(-0.3037 -0.9528 0.9528 -0.3037 -21.7248 662.2015)" fill="#F4A49E" width="6.6" height="6"/>
	
		<rect x="228.4" y="291.6" transform="matrix(-0.4906 -0.8714 0.8714 -0.4906 88.6817 641.0887)" fill="#F4A49E" width="6.6" height="6"/>
	<rect x="204.3" y="142" transform="matrix(0.891 0.454 -0.454 0.891 88.5537 -78.2873)" fill="#F4A49E" width="6" height="6.6"/>
	<rect x="208" y="327.4" fill="#F4A49E" width="6.6" height="6"/>
	<rect x="215.1" y="147.5" transform="matrix(0.891 0.454 -0.454 0.891 92.2251 -82.5963)" fill="#F4A49E" width="6" height="6.6"/>
	<path fill="#F4A49E" d="M210.9,345.4h3.6v-6H208v6c0,1.2,0.6,2.4,1.2,3c0.6,0.6,1.2,0.6,1.8,0.6s0.6,0,1.2,0L210.9,345.4z"/>
	
		<rect x="289.9" y="185.2" transform="matrix(0.891 0.454 -0.454 0.891 117.5176 -112.4155)" fill="#F4A49E" width="6" height="6.6"/>
	<path fill="#F4A49E" d="M209.7,302.9c-1.2,0.6-1.8,1.8-1.8,3v3.6h6.6v-3.6h-0.6l-2.4-4.2L209.7,302.9z"/>
	<path fill="#F4A49E" d="M161.3,130.2v-0.6c0-1.2,0-3,0.6-4.2l-6.6-1.8c-0.6,1.8-0.6,4.2-0.6,6v0.6H161.3z"/>
	<path fill="#F4A49E" d="M198.4,121.3c-0.6-2.4-2.4-4.2-3.6-6l-5.4,4.2c1.2,1.2,1.8,2.4,2.4,4.2L198.4,121.3z"/>
	<path fill="#F4A49E" d="M167.3,117.7l-4.2-5.4c-1.8,1.2-3.6,3-4.8,5.4l5.4,3.6C164.9,119.5,166.1,118.3,167.3,117.7z"/>
	<path fill="#F4A49E" d="M176.3,114.1l-0.6-6.6c-2.4,0-4.8,0.6-6.6,1.2l2.4,6.6C172.7,114.7,174.5,114.1,176.3,114.1z"/>
	<path fill="#F4A49E" d="M182.9,108.1l-1.8,6.6c1.8,0.6,3,1.2,4.8,1.8l3.6-6C187,109.3,185.2,108.7,182.9,108.1z"/>
	<path fill="#F4A49E" d="M162.5,135l-6.6,2.4c0.6,2.4,1.8,4.2,3.6,6l5.4-4.2C163.7,138,162.5,136.8,162.5,135z"/>
	<path fill="#F4A49E" d="M164.3,148.8c1.8,1.2,4.2,2.4,6.6,3l1.8-6.6c-1.8-0.6-3-1.2-4.2-2.4L164.3,148.8z"/>
	<path fill="#F4A49E" d="M177.5,145.8v6.6c2.4,0,4.8-0.6,7.2-1.2l-2.4-6.6C181.1,145.2,179.3,145.8,177.5,145.8z"/>
</g>
</svg>
