<?xml version="1.0" encoding="utf-8"?>
<!-- Generator: Adobe Illustrator 18.1.0, SVG Export Plug-In . SVG Version: 6.00 Build 0)  -->
<svg version="1.1" id="Layer_1" xmlns="http://www.w3.org/2000/svg" xmlns:xlink="http://www.w3.org/1999/xlink" x="0px" y="0px"
	 viewBox="-52 43 535 395" enable-background="new -52 43 535 395" xml:space="preserve">
<g>
	<path fill="#F4A49E" d="M471.9,43H-41.2c-6,0-10.8,4.8-10.8,10.8v308.8c0,6,4.8,10.8,10.8,10.8h201.6l-19.1,51.4c0,0.6,0,0.6,0,1.2
		c0,6.6,5.4,12,12,12h124.4c6.6,0,12-5.4,12-12c0-0.6,0-0.6,0-1.2l-19.1-51.4h201.6c6,0,10.8-4.8,10.8-10.8V53.8
		C482.7,48.4,477.9,43,471.9,43z M475.5,362.6c0,2.4-1.8,4.2-4.2,4.2H267.4c-0.6,0-0.6,0-1.2,0l-1.8,0.6c-0.6,0-1.8,1.2-1.8,1.8
		c-0.6,0.6-0.6,1.8,0,2.4l20.3,55c0,3-2.4,4.8-5.4,4.8H153.2c-3,0-5.4-2.4-5.4-4.8l20.3-55c0-0.6,0-1.8,0-2.4v-0.6
		c-0.6-1.2-1.8-1.8-3-1.8H-41.2c-2.4,0-4.2-1.8-4.2-4.2V53.8c0-2.4,1.8-4.2,4.2-4.2H472c2.4,0,4.2,1.8,4.2,4.2v308.8L475.5,362.6
		L475.5,362.6z"/>
	<path fill="#F4A49E" d="M453.4,61.5H-22.7c-5.4,0-10.2,4.2-10.2,9.6v274.2c0,5.4,4.8,9.6,10.2,9.6h476.1c5.4,0,10.2-4.2,10.2-9.6
		V71.1C463.6,65.7,458.8,61.5,453.4,61.5z M456.4,345.3c0,1.8-1.8,3-3.6,3H-22.7c-1.8,0-3.6-1.2-3.6-3V71.1c0-1.8,1.8-3,3.6-3h476.1
		c1.8,0,3.6,1.2,3.6,3v274.2H456.4z"/>
	<rect x="146.6" y="118.3" fill="#F4A49E" width="6" height="6.6"/>
	<rect x="62.8" y="118.3" fill="#F4A49E" width="6" height="6.6"/>
	<rect x="86.7" y="118.3" fill="#F4A49E" width="6" height="6.6"/>
	<rect x="74.8" y="118.3" fill="#F4A49E" width="6" height="6.6"/>
	<rect x="98.7" y="118.3" fill="#F4A49E" width="6" height="6.6"/>
	<rect x="134.6" y="118.3" fill="#F4A49E" width="6" height="6.6"/>
	<rect x="182.5" y="118.3" fill="#F4A49E" width="6" height="6.6"/>
	<rect x="50.8" y="118.3" fill="#F4A49E" width="6" height="6.6"/>
	<rect x="110.7" y="118.3" fill="#F4A49E" width="6" height="6.6"/>
	<rect x="170.5" y="118.3" fill="#F4A49E" width="6" height="6.6"/>
	<rect x="122.6" y="118.3" fill="#F4A49E" width="6" height="6.6"/>
	<rect x="158.5" y="118.3" fill="#F4A49E" width="6" height="6.6"/>
	<rect x="74.8" y="282.5" fill="#F4A49E" width="6" height="6.6"/>
	<rect x="146.6" y="282.5" fill="#F4A49E" width="6" height="6.6"/>
	<rect x="110.7" y="282.5" fill="#F4A49E" width="6" height="6.6"/>
	<rect x="170.5" y="282.5" fill="#F4A49E" width="6" height="6.6"/>
	<rect x="182.5" y="282.5" fill="#F4A49E" width="6" height="6.6"/>
	<rect x="134.6" y="282.5" fill="#F4A49E" width="6" height="6.6"/>
	<rect x="122.6" y="282.5" fill="#F4A49E" width="6" height="6.6"/>
	<rect x="50.8" y="282.5" fill="#F4A49E" width="6" height="6.6"/>
	<rect x="158.5" y="282.5" fill="#F4A49E" width="6" height="6.6"/>
	<rect x="86.7" y="282.5" fill="#F4A49E" width="6" height="6.6"/>
	<rect x="62.8" y="282.5" fill="#F4A49E" width="6" height="6.6"/>
	<rect x="98.7" y="282.5" fill="#F4A49E" width="6" height="6.6"/>
	<rect x="134.6" y="138.6" fill="#F4A49E" width="6" height="6.6"/>
	<rect x="158.5" y="138.6" fill="#F4A49E" width="6" height="6.6"/>
	<rect x="146.6" y="138.6" fill="#F4A49E" width="6" height="6.6"/>
	<rect x="110.7" y="138.6" fill="#F4A49E" width="6" height="6.6"/>
	<rect x="122.6" y="138.6" fill="#F4A49E" width="6" height="6.6"/>
	<rect x="170.5" y="138.6" fill="#F4A49E" width="6" height="6.6"/>
	<rect x="158.5" y="261.6" fill="#F4A49E" width="6" height="6.6"/>
	<rect x="134.6" y="261.6" fill="#F4A49E" width="6" height="6.6"/>
	<rect x="146.6" y="261.6" fill="#F4A49E" width="6" height="6.6"/>
	<rect x="122.6" y="261.6" fill="#F4A49E" width="6" height="6.6"/>
	<rect x="110.7" y="261.6" fill="#F4A49E" width="6" height="6.6"/>
	<rect x="212.4" y="179.8" fill="#F4A49E" width="6" height="6.6"/>
	<rect x="200.4" y="179.8" fill="#F4A49E" width="6" height="6.6"/>
	<rect x="188.5" y="179.8" fill="#F4A49E" width="6" height="6.6"/>
	<rect x="152.6" y="179.8" fill="#F4A49E" width="6" height="6.6"/>
	<rect x="176.5" y="179.8" fill="#F4A49E" width="6" height="6.6"/>
	<rect x="164.5" y="179.8" fill="#F4A49E" width="6" height="6.6"/>
	<rect x="200.4" y="221.1" fill="#F4A49E" width="6" height="6.6"/>
	<rect x="176.5" y="221.1" fill="#F4A49E" width="6" height="6.6"/>
	<rect x="212.4" y="221.1" fill="#F4A49E" width="6" height="6.6"/>
	<rect x="188.5" y="221.1" fill="#F4A49E" width="6" height="6.6"/>
	<rect x="152.6" y="221.1" fill="#F4A49E" width="6" height="6.6"/>
	<rect x="164.5" y="221.1" fill="#F4A49E" width="6" height="6.6"/>
	<rect x="224.3" y="241.3" fill="#F4A49E" width="6" height="6.6"/>
	<rect x="236.2" y="241.3" fill="#F4A49E" width="5.4" height="6.6"/>
	<rect x="128.6" y="241.3" fill="#F4A49E" width="6" height="6.6"/>
	<rect x="140.6" y="241.3" fill="#F4A49E" width="6" height="6.6"/>
	<rect x="152.6" y="241.3" fill="#F4A49E" width="6" height="6.6"/>
	<rect x="188.5" y="241.3" fill="#F4A49E" width="6" height="6.6"/>
	<rect x="176.5" y="241.3" fill="#F4A49E" width="6" height="6.6"/>
	<rect x="164.5" y="241.3" fill="#F4A49E" width="6" height="6.6"/>
	<rect x="212.4" y="241.3" fill="#F4A49E" width="6" height="6.6"/>
	<rect x="200.4" y="241.3" fill="#F4A49E" width="6" height="6.6"/>
	<rect x="128.6" y="159.5" fill="#F4A49E" width="6" height="6.6"/>
	<rect x="176.5" y="159.5" fill="#F4A49E" width="6" height="6.6"/>
	<rect x="140.6" y="159.5" fill="#F4A49E" width="6" height="6.6"/>
	<rect x="164.5" y="159.5" fill="#F4A49E" width="6" height="6.6"/>
	<rect x="152.6" y="159.5" fill="#F4A49E" width="6" height="6.6"/>
	<rect x="308.1" y="159.5" fill="#F4A49E" width="6" height="6.6"/>
	<rect x="272.2" y="159.5" fill="#F4A49E" width="6" height="6.6"/>
	<rect x="320" y="159.5" fill="#F4A49E" width="6" height="6.6"/>
	<rect x="284.1" y="159.5" fill="#F4A49E" width="6" height="6.6"/>
	<rect x="296.1" y="159.5" fill="#F4A49E" width="6" height="6.6"/>
	<rect x="332" y="159.5" fill="#F4A49E" width="6" height="6.6"/>
	<rect x="344" y="159.5" fill="#F4A49E" width="6" height="6.6"/>
	<rect x="260.2" y="159.5" fill="#F4A49E" width="6" height="6.6"/>
	<rect x="236.2" y="159.5" fill="#F4A49E" width="6" height="6.6"/>
	<rect x="224.3" y="159.5" fill="#F4A49E" width="6" height="6.6"/>
	<rect x="188.5" y="159.5" fill="#F4A49E" width="6" height="6.6"/>
	<rect x="200.4" y="159.5" fill="#F4A49E" width="6" height="6.6"/>
	<rect x="212.4" y="159.5" fill="#F4A49E" width="6" height="6.6"/>
	<rect x="248.2" y="159.5" fill="#F4A49E" width="6" height="6.6"/>
	<rect x="171.1" y="200.2" fill="#F4A49E" width="6" height="6.6"/>
	<rect x="183.1" y="200.2" fill="#F4A49E" width="6" height="6.6"/>
	<rect x="195.1" y="200.2" fill="#F4A49E" width="6" height="6.6"/>
	<rect x="230.9" y="200.2" fill="#F4A49E" width="6" height="6.6"/>
	<rect x="254.8" y="200.2" fill="#F4A49E" width="4.8" height="6.6"/>
	<rect x="242.8" y="200.2" fill="#F4A49E" width="6" height="6.6"/>
	<rect x="207" y="200.2" fill="#F4A49E" width="6" height="6.6"/>
	<rect x="218.9" y="200.2" fill="#F4A49E" width="6" height="6.6"/>
</g>
</svg>
