<?xml version="1.0" encoding="utf-8"?>
<!-- Generator: Adobe Illustrator 18.1.0, SVG Export Plug-In . SVG Version: 6.00 Build 0)  -->
<svg version="1.1" id="Layer_1" xmlns="http://www.w3.org/2000/svg" xmlns:xlink="http://www.w3.org/1999/xlink" x="0px" y="0px"
	 width="206px" height="25px" viewBox="0 0 206 25" enable-background="new 0 0 206 25" xml:space="preserve">
<g>
	<path fill="#FFFFFF" d="M12.5,0l1.3,1.3L2.6,12.5l11.2,11.2L12.5,25L0,12.5L12.5,0z"/>
</g>
<g>
	<path fill="#FFFFFF" d="M33.3,25L32,23.7l11.2-11.2L32,1.3L33.3,0l12.5,12.5L33.3,25z"/>
</g>
<g>
	<path fill="#FFFFFF" d="M64,11.6h11.6V0h1.9v11.6H89v1.9H77.4V25h-1.9V13.4H64V11.6z"/>
</g>
<g>
	<g>
		<g>
			<path fill="#FFFFFF" d="M96,0v7h7V0H96z M102,6h-5V1h5V6z"/>
		</g>
	</g>
	<g>
		<g>
			<path fill="#FFFFFF" d="M105,0v7h7V0H105z M111,6h-5V1h5V6z"/>
		</g>
	</g>
	<g>
		<g>
			<path fill="#FFFFFF" d="M114,0v7h7V0H114z M120,6h-5V1h5V6z"/>
		</g>
	</g>
	<g>
		<g>
			<path fill="#FFFFFF" d="M96,9v7h7V9H96z M102,15h-5v-5h5V15z"/>
		</g>
	</g>
	<g>
		<g>
			<path fill="#FFFFFF" d="M105,9v7h7V9H105z M111,15h-5v-5h5V15z"/>
		</g>
	</g>
	<g>
		<g>
			<path fill="#FFFFFF" d="M114,9v7h7V9H114z M120,15h-5v-5h5V15z"/>
		</g>
	</g>
	<g>
		<g>
			<path fill="#FFFFFF" d="M96,18v7h7v-7H96z M102,24h-5v-5h5V24z"/>
		</g>
	</g>
	<g>
		<g>
			<path fill="#FFFFFF" d="M105,18v7h7v-7H105z M111,24h-5v-5h5V24z"/>
		</g>
	</g>
	<g>
		<g>
			<path fill="#FFFFFF" d="M114,18v7h7v-7H114z M120,24h-5v-5h5V24z"/>
		</g>
	</g>
</g>
<g opacity="0.5">
	<g>
		<path fill="#FFFFFF" d="M152.4,14l-14-14h-8.3c-1.2,0-2.1,0.9-2.1,2.1v8.3l14,14c0.8,0.8,2.1,0.8,3,0l7.5-7.5
			C153.2,16.1,153.2,14.8,152.4,14z M151.6,16.1l-7.5,7.5c-0.4,0.4-1.1,0.4-1.5,0L128.9,9.9V2.1c0-0.6,0.5-1.1,1.1-1.1h7.8
			l13.7,13.6C152,15.1,152,15.7,151.6,16.1z"/>
	</g>
</g>
<g opacity="0.5">
	<g>
		<path fill="#FFFFFF" d="M133.7,3.1c-1.4,0-2.6,1.2-2.6,2.6s1.2,2.6,2.6,2.6s2.6-1.2,2.6-2.6S135.2,3.1,133.7,3.1z M133.7,7.3
			c-0.9,0-1.6-0.7-1.6-1.6s0.7-1.6,1.6-1.6s1.6,0.7,1.6,1.6S134.6,7.3,133.7,7.3z"/>
	</g>
</g>
<g opacity="0.5">
	<g>
		<path fill="#FFFFFF" d="M205.7,12.8L197.8,5h-4.6c-0.7,0-1.2,0.5-1.2,1.2v4.6l7.8,7.8c0.4,0.4,1.2,0.4,1.7,0l4.2-4.2
			C206.1,14,206.1,13.3,205.7,12.8z M205.2,14l-4.2,4.2c-0.2,0.2-0.6,0.2-0.8,0l-7.7-7.7V6.2c0-0.3,0.3-0.6,0.6-0.6h4.4l7.7,7.6
			C205.4,13.5,205.4,13.8,205.2,14z"/>
	</g>
</g>
<g opacity="0.5">
	<g>
		<path fill="#FFFFFF" d="M195.2,6.7c-0.8,0-1.5,0.7-1.5,1.5s0.7,1.5,1.5,1.5s1.5-0.7,1.5-1.5S196,6.7,195.2,6.7z M195.2,9.1
			c-0.5,0-0.9-0.4-0.9-0.9s0.4-0.9,0.9-0.9s0.9,0.4,0.9,0.9S195.7,9.1,195.2,9.1z"/>
	</g>
</g>
<path opacity="0.5" fill="#FFFFFF" d="M164,14c-2.2,0-4-1.8-4-4s1.8-4,4-4s4,1.8,4,4S166.2,14,164,14z M164,7c-1.7,0-3,1.3-3,3
	s1.3,3,3,3s3-1.3,3-3S165.7,7,164,7z"/>
</svg>
