<?xml version="1.0" encoding="UTF-8"?>
<svg width="505px" height="139px" viewBox="0 0 505 139" version="1.1" xmlns="http://www.w3.org/2000/svg" xmlns:xlink="http://www.w3.org/1999/xlink">
    <!-- Generator: Sketch 52.4 (67378) - http://www.bohemiancoding.com/sketch -->
    <title>nov-2019</title>
    <desc>Created with Sketch.</desc>
    <g id="nov-2019" stroke="none" stroke-width="1" fill="none" fill-rule="evenodd">
        <path d="M173.36,67.895 C176.688,67.895 178.479,66.053 178.479,63.493 C178.479,60.78 176.688,59.091 173.36,59.091 L168.599,59.091 L168.599,67.895 L173.36,67.895 Z M171.466,74.857 L168.599,74.857 L168.599,88.372 L160.511,88.372 L160.511,52.077 L174.896,52.077 C182.062,52.077 186.67,56.992 186.67,63.442 C186.67,68.356 183.956,72.093 179.503,73.68 L186.874,88.372 L177.967,88.372 L171.466,74.857 Z" id="Fill-1" fill="#FFFFFF"></path>
        <path d="M205.663,72.605 C205.56,70.66 204.229,68.305 200.544,68.305 C197.267,68.305 195.629,70.711 195.476,72.605 L205.663,72.605 Z M212.727,81.052 C211.499,85.454 207.454,89.14 201.004,89.14 C193.991,89.14 187.746,84.123 187.746,75.574 C187.746,67.384 193.837,62.162 200.441,62.162 C208.324,62.162 213.188,67.025 213.188,75.216 C213.188,76.291 213.086,77.468 213.034,77.622 L195.322,77.622 C195.476,80.488 198.087,82.536 201.107,82.536 C203.922,82.536 205.509,81.205 206.226,79.209 L212.727,81.052 Z" id="Fill-2" fill="#FFFFFF"></path>
        <path d="M224.092,75.677 C224.092,79.721 226.806,81.973 230.03,81.973 C233.051,81.973 234.74,80.079 235.303,78.185 L242.163,80.284 C241.037,84.737 236.839,89.14 230.03,89.14 C222.454,89.14 216.363,83.56 216.363,75.677 C216.363,67.742 222.301,62.162 229.775,62.162 C236.788,62.162 240.883,66.462 242.009,71.018 L235.047,73.117 C234.484,71.172 232.948,69.329 229.928,69.329 C226.703,69.329 224.092,71.581 224.092,75.677" id="Fill-3" fill="#FFFFFF"></path>
        <path d="M263.341,75.625 C263.341,71.326 260.577,69.329 257.608,69.329 C254.691,69.329 251.875,71.326 251.875,75.625 C251.875,79.874 254.691,81.973 257.608,81.973 C260.577,81.973 263.341,79.925 263.341,75.625 Z M271.122,75.625 C271.122,83.509 265.235,89.14 257.608,89.14 C250.032,89.14 244.094,83.509 244.094,75.625 C244.094,67.742 250.032,62.162 257.608,62.162 C265.235,62.162 271.122,67.742 271.122,75.625 Z" id="Fill-4" fill="#FFFFFF"></path>
        <path d="M274.605,88.372 L274.605,62.93 L282.028,62.93 L282.028,65.848 C283.307,63.596 286.584,62.162 289.348,62.162 C292.982,62.162 295.593,63.647 296.873,66.155 C298.869,63.289 301.327,62.162 304.756,62.162 C309.568,62.162 314.175,64.978 314.175,71.889 L314.175,88.372 L306.65,88.372 L306.65,73.629 C306.65,71.223 305.371,69.329 302.606,69.329 C299.842,69.329 298.357,71.428 298.357,73.68 L298.357,88.372 L290.679,88.372 L290.679,73.629 C290.679,71.223 289.399,69.329 286.584,69.329 C283.87,69.329 282.386,71.428 282.386,73.731 L282.386,88.372 L274.605,88.372" id="Fill-5" fill="#FFFFFF"></path>
        <path d="M318.682,88.372 L318.682,62.93 L326.105,62.93 L326.105,65.848 C327.384,63.596 330.661,62.162 333.425,62.162 C337.06,62.162 339.67,63.647 340.95,66.155 C342.946,63.289 345.403,62.162 348.833,62.162 C353.646,62.162 358.253,64.978 358.253,71.889 L358.253,88.372 L350.728,88.372 L350.728,73.629 C350.728,71.223 349.448,69.329 346.683,69.329 C343.919,69.329 342.435,71.428 342.435,73.68 L342.435,88.372 L334.756,88.372 L334.756,73.629 C334.756,71.223 333.476,69.329 330.661,69.329 C327.948,69.329 326.463,71.428 326.463,73.731 L326.463,88.372 L318.682,88.372" id="Fill-6" fill="#FFFFFF"></path>
        <path d="M379.857,72.605 C379.754,70.66 378.423,68.305 374.737,68.305 C371.461,68.305 369.823,70.711 369.67,72.605 L379.857,72.605 Z M386.921,81.052 C385.692,85.454 381.648,89.14 375.198,89.14 C368.185,89.14 361.94,84.123 361.94,75.574 C361.94,67.384 368.031,62.162 374.635,62.162 C382.519,62.162 387.382,67.025 387.382,75.216 C387.382,76.291 387.279,77.468 387.228,77.622 L369.516,77.622 C369.67,80.488 372.28,82.536 375.301,82.536 C378.116,82.536 379.703,81.205 380.419,79.209 L386.921,81.052 Z" id="Fill-7" fill="#FFFFFF"></path>
        <path d="M466.513,72.605 C466.41,70.66 465.079,68.305 461.393,68.305 C458.117,68.305 456.479,70.711 456.325,72.605 L466.513,72.605 Z M473.577,81.052 C472.348,85.454 468.304,89.14 461.854,89.14 C454.841,89.14 448.596,84.123 448.596,75.574 C448.596,67.384 454.687,62.162 461.291,62.162 C469.174,62.162 474.038,67.025 474.038,75.216 C474.038,76.291 473.935,77.468 473.884,77.622 L456.172,77.622 C456.325,80.488 458.936,82.536 461.956,82.536 C464.772,82.536 466.359,81.205 467.075,79.209 L473.577,81.052 Z" id="Fill-8" fill="#FFFFFF"></path>
        <path d="M398.901,88.372 L391.12,88.372 L391.12,62.93 L398.645,62.93 L398.645,65.848 C400.027,63.442 403.15,62.265 405.76,62.265 C412.159,62.265 415.026,66.821 415.026,72.4 L415.026,88.372 L407.245,88.372 L407.245,73.731 C407.245,71.223 405.914,69.329 403.099,69.329 C400.539,69.329 398.901,71.223 398.901,73.783 L398.901,88.372" id="Fill-9" fill="#FFFFFF"></path>
        <path d="M432.022,81.973 C435.043,81.973 437.755,79.823 437.755,75.625 C437.755,71.376 435.043,69.329 432.022,69.329 C429.002,69.329 426.289,71.376 426.289,75.625 C426.289,79.823 429.002,81.973 432.022,81.973 Z M445.332,83.816 C445.332,86.119 445.485,87.809 445.537,88.372 L438.063,88.372 C438.012,88.065 437.858,86.939 437.858,85.914 C436.681,87.655 434.121,88.935 431.05,88.935 C423.883,88.935 418.457,83.407 418.457,75.574 C418.457,67.998 423.576,62.316 430.794,62.316 C435.145,62.316 437.039,63.954 437.653,64.927 L437.653,51.31 L445.332,51.31 L445.332,83.816 Z" id="Fill-10" fill="#FFFFFF"></path>
        <path d="M490.774,81.973 C493.794,81.973 496.507,79.823 496.507,75.625 C496.507,71.376 493.794,69.329 490.774,69.329 C487.754,69.329 485.041,71.376 485.041,75.625 C485.041,79.823 487.754,81.973 490.774,81.973 Z M504.084,83.816 C504.084,86.119 504.237,87.809 504.289,88.372 L496.815,88.372 C496.764,88.065 496.61,86.939 496.61,85.914 C495.432,87.655 492.873,88.935 489.801,88.935 C482.635,88.935 477.209,83.407 477.209,75.574 C477.209,67.998 482.327,62.316 489.545,62.316 C493.897,62.316 495.791,63.954 496.405,64.927 L496.405,51.31 L504.084,51.31 L504.084,83.816 Z" id="Fill-12" fill="#FFFFFF"></path>
        <path d="M373.013,11.63 C369.583,11.63 367.126,12.757 365.129,15.623 C363.85,13.115 361.239,11.63 357.605,11.63 C354.84,11.63 351.564,13.064 350.284,15.316 L350.284,12.398 L342.861,12.398 L342.861,37.84 L350.642,37.84 L350.642,23.2 C350.642,20.896 352.127,18.797 354.84,18.797 C357.656,18.797 358.935,20.691 358.935,23.097 L358.935,37.84 L366.614,37.84 L366.614,23.148 C366.614,20.896 368.099,18.797 370.863,18.797 C373.627,18.797 374.907,20.691 374.907,23.097 L374.907,37.84 L382.432,37.84 L382.432,21.357 C382.432,14.446 377.825,11.63 373.013,11.63 Z M337.536,12.398 L329.755,12.398 L329.755,26.886 C329.755,29.445 328.117,31.237 325.506,31.237 C322.742,31.237 321.411,29.291 321.411,26.834 L321.411,12.398 L313.63,12.398 L313.63,28.473 C313.63,33.899 317.111,38.403 323.305,38.403 C325.865,38.403 328.783,37.482 330.113,35.281 C330.113,35.946 330.216,37.379 330.318,37.84 L337.793,37.84 C337.741,37.431 337.536,35.588 337.536,33.285 L337.536,12.398 Z M301.292,15.828 L301.292,12.398 L293.767,12.398 L293.767,37.84 L301.548,37.84 L301.548,26.732 C301.548,21.664 304.363,19.821 307.486,19.821 C308.254,19.821 309.073,19.872 309.943,20.077 L309.943,12.398 C309.432,12.245 308.664,12.143 307.896,12.143 C305.848,12.143 302.623,12.961 301.292,15.828 Z M281.069,19.719 C281.069,12.45 276.514,9.173 270.934,9.173 L266.224,9.173 L266.224,30.213 L270.934,30.213 C276.514,30.213 281.069,26.988 281.069,19.719 Z M289.516,19.719 C289.516,30.93 282.196,37.84 271.241,37.84 L258.136,37.84 L258.136,1.546 L271.292,1.546 C282.196,1.546 289.516,8.508 289.516,19.719 Z M236.379,22.074 C236.277,20.128 234.945,17.773 231.26,17.773 C227.984,17.773 226.345,20.18 226.192,22.074 L236.379,22.074 Z M243.904,24.684 C243.904,25.759 243.802,26.936 243.751,27.09 L226.038,27.09 C226.192,29.957 228.803,32.005 231.823,32.005 C234.638,32.005 236.225,30.674 236.942,28.677 L243.443,30.52 C242.214,34.922 238.171,38.608 231.721,38.608 C224.708,38.608 218.462,33.591 218.462,25.042 C218.462,16.852 224.554,11.63 231.157,11.63 C239.041,11.63 243.904,16.494 243.904,24.684 Z M205.218,11.733 C202.966,11.733 200.304,12.45 198.717,14.036 L198.717,0.778 L190.936,0.778 L190.936,37.84 L198.717,37.84 L198.717,22.893 C198.87,20.538 200.457,18.797 202.915,18.797 C205.73,18.797 207.061,20.691 207.061,23.2 L207.061,37.84 L214.842,37.84 L214.842,21.869 C214.842,16.289 211.873,11.733 205.218,11.733 Z M157.45,1.546 L187.909,1.546 L187.909,9.276 L176.698,9.276 L176.698,37.84 L168.61,37.84 L168.61,9.276 L157.45,9.276 L157.45,1.546 Z" id="Fill-14" fill="#ED1C24"></path>
        <path d="M393.616,33.795 L392.35,36.897 L391.084,33.795 L390.171,33.795 L390.171,37.839 L390.76,37.839 L390.76,34.443 L390.779,34.443 L392.144,37.839 L392.527,37.839 L393.891,34.443 L393.911,34.443 L393.911,37.839 L394.5,37.839 L394.5,33.795 L393.616,33.795 Z M386.271,33.795 L386.271,34.325 L387.604,34.325 L387.604,37.839 L388.193,37.839 L388.193,34.325 L389.499,34.325 L389.499,33.795 L386.271,33.795 Z" id="Fill-15" fill="#ED1C24"></path>
        <path d="M160.655,125.309 L160.655,102.505 L168.608,102.505 L168.608,124.654 C168.608,128.983 171.025,131.148 174.8,131.148 C178.576,131.148 180.992,128.983 180.992,124.654 L180.992,102.505 L188.945,102.505 L188.945,125.309 C188.945,134.269 182.653,139 174.8,139 C166.947,139 160.655,134.269 160.655,125.309" id="Fill-17" fill="#FFFFFF"></path>
        <path d="M201.028,138.195 L193.377,138.195 L193.377,113.177 L200.776,113.177 L200.776,116.046 C202.136,113.68 205.206,112.522 207.774,112.522 C214.066,112.522 216.885,117.003 216.885,122.49 L216.885,138.195 L209.233,138.195 L209.233,123.798 C209.233,121.332 207.924,119.469 205.156,119.469 C202.639,119.469 201.028,121.332 201.028,123.849 L201.028,138.195" id="Fill-19" fill="#FFFFFF"></path>
        <path d="M231.64,113.177 L236.523,113.177 L236.523,119.872 L231.64,119.872 L231.64,129.235 C231.64,131.299 232.747,131.852 234.408,131.852 C235.214,131.852 235.969,131.702 236.422,131.601 L236.422,137.944 C236.12,138.095 234.861,138.648 232.445,138.648 C227.26,138.648 224.089,135.578 224.089,130.594 L224.089,119.872 L219.659,119.872 L219.659,113.177 L220.918,113.177 C223.535,113.177 224.794,111.415 224.794,109.1 L224.794,105.878 L231.64,105.878 L231.64,113.177" id="Fill-20" fill="#FFFFFF"></path>
        <path d="M241.048,138.195 L248.7,138.195 L248.7,113.177 L241.048,113.177 L241.048,138.195 Z M244.824,101.045 C247.341,101.045 249.355,103.059 249.355,105.525 C249.355,107.992 247.341,110.005 244.824,110.005 C242.408,110.005 240.394,107.992 240.394,105.525 C240.394,103.059 242.408,101.045 244.824,101.045 Z" id="Fill-21" fill="#FFFFFF"></path>
        <polygon id="Fill-22" fill="#FFFFFF" points="253.885 138.195 261.537 138.195 261.537 101.75 253.885 101.75"></polygon>
        <polyline id="Fill-23" fill="#FFFFFF" points="301.253 138.195 286.555 114.737 286.555 138.195 278.651 138.195 278.651 102.505 288.316 102.505 301.707 124.201 301.707 102.505 309.66 102.505 309.66 138.195 301.253 138.195"></polyline>
        <path d="M333.507,125.661 C333.507,121.433 330.789,119.469 327.87,119.469 C325,119.469 322.232,121.433 322.232,125.661 C322.232,129.839 325,131.903 327.87,131.903 C330.789,131.903 333.507,129.89 333.507,125.661 Z M341.159,125.661 C341.159,133.413 335.37,138.95 327.87,138.95 C320.419,138.95 314.58,133.413 314.58,125.661 C314.58,117.909 320.419,112.422 327.87,112.422 C335.37,112.422 341.159,117.909 341.159,125.661 Z" id="Fill-25" fill="#FFFFFF"></path>
        <polyline id="Fill-27" fill="#FFFFFF" points="359.357 138.195 351.656 138.195 341.387 113.177 349.692 113.177 355.482 128.731 360.817 113.177 368.872 113.177 359.357 138.195"></polyline>
        <path d="M383.823,118.563 C383.672,118.161 383.521,116.851 383.521,115.845 C383.521,110.005 387.9,104.77 395.753,104.77 C403.254,104.77 407.885,109.653 407.885,115.493 C407.885,119.721 405.62,123.194 401.442,125.661 L395.25,129.335 C394.294,129.94 393.488,130.594 393.035,131.551 L408.137,131.551 L408.137,138.195 L383.32,138.195 C383.32,132.205 385.031,127.272 391.022,123.798 L396.357,120.677 C398.925,119.167 399.932,117.808 399.932,115.643 C399.932,113.58 398.472,111.767 395.552,111.767 C392.482,111.767 390.971,113.882 390.971,116.6 C390.971,117.254 391.072,117.959 391.273,118.614 L383.823,118.563" id="Fill-28" fill="#FFFFFF"></path>
        <path d="M420.703,128.983 C421.608,130.795 423.068,132.003 425.484,132.003 C427.951,132.003 429.361,130.795 430.267,128.983 C431.223,127.07 431.525,124.503 431.525,121.886 C431.525,119.268 431.223,116.701 430.267,114.788 C429.361,112.976 427.951,111.767 425.484,111.767 C423.068,111.767 421.608,112.976 420.703,114.788 C419.796,116.701 419.494,119.268 419.494,121.886 C419.494,124.503 419.796,127.07 420.703,128.983 Z M414.41,110.358 C416.575,107.086 420.199,104.77 425.484,104.77 C430.82,104.77 434.445,107.086 436.609,110.358 C438.875,113.781 439.479,117.858 439.479,121.886 C439.479,125.913 438.875,129.99 436.609,133.413 C434.445,136.635 430.82,139 425.484,139 C420.199,139 416.575,136.635 414.41,133.413 C412.145,129.99 411.541,125.913 411.541,121.886 C411.541,117.858 412.145,113.781 414.41,110.358 Z" id="Fill-30" fill="#FFFFFF"></path>
        <path d="M450.111,138.195 L450.111,116.952 L442.309,116.952 L442.309,111.667 C447.191,111.617 450.665,108.848 451.219,105.525 L458.014,105.525 L458.014,138.195 L450.111,138.195" id="Fill-31" fill="#FFFFFF"></path>
        <path d="M475.523,111.415 C472.754,111.415 470.64,113.328 470.64,116.046 C470.64,118.765 472.754,120.677 475.523,120.677 C478.292,120.677 480.406,118.714 480.406,116.046 C480.406,113.328 478.292,111.415 475.523,111.415 Z M465.808,130.846 C466.865,131.399 469.231,132.155 471.546,132.155 C476.53,132.155 480.96,129.89 481.463,124.101 C480.104,126.114 477.285,127.272 474.365,127.272 C468.073,127.272 463.089,122.842 463.089,116.298 C463.089,109.653 468.224,104.77 475.876,104.77 C483.326,104.77 489.114,110.056 489.114,120.476 C489.114,132.054 482.923,138.95 471.697,138.95 C468.777,138.95 465.808,138.246 464.096,137.239 L465.808,130.846 Z" id="Fill-32" fill="#FFFFFF"></path>
        <path d="M136.528,69.89 C136.528,107.591 105.965,138.154 68.264,138.154 C30.563,138.154 0,107.591 0,69.89 C0,32.188 30.563,1.625 68.264,1.625 C105.965,1.625 136.528,32.188 136.528,69.89" id="Fill-34" fill="#ED1C24"></path>
        <path d="M94.812,83.893 L81.538,61.681 L68.264,83.893 L54.991,61.681 L41.717,83.893 L28.443,61.681 L28.443,89.687 L108.085,89.687 L108.085,61.681 L94.812,83.893 Z M28.443,55.887 L108.085,55.887 L108.085,50.092 L28.443,50.092 L28.443,55.887 Z" id="Fill-35" fill="#FFFFFF"></path>
    </g>
</svg>