<?xml version="1.0" encoding="utf-8"?>
<!-- Generator: Adobe Illustrator 18.0.0, SVG Export Plug-In . SVG Version: 6.00 Build 0)  -->
<!DOCTYPE svg PUBLIC "-//W3C//DTD SVG 1.1//EN" "http://www.w3.org/Graphics/SVG/1.1/DTD/svg11.dtd">
<svg version="1.1" id="Layer_1" xmlns="http://www.w3.org/2000/svg" xmlns:xlink="http://www.w3.org/1999/xlink" x="0px" y="0px"
	 viewBox="0 0 93 75" enable-background="new 0 0 93 75" xml:space="preserve">
<rect x="0" y="0" fill="#CD2D27" width="93" height="75"/>
<g>
	<path fill="#F5F5F5" d="M72,44.6l-0.2,3.7h-5.3l-0.1-1.3c-0.1,0-0.1,0-0.2,0c-0.7,0.8-1.5,1.4-2.5,1.7c-0.5,0.2-1,0.2-1.5,0.2
		c-3.9,0-5-2.9-5-6c0-6.6,3.9-11.4,10.5-11.4c1.4,0,3.8,0.3,6.4,1.4L72,44.6z M67.3,35.9c-0.3-0.1-0.5-0.1-0.8-0.1
		c-2,0-2.9,4-2.9,6.2c0,1.3,0.3,2.2,1.1,2.2c0.7,0,1.2-0.5,1.3-1.1L67.3,35.9z"/>
	<path fill="#F5F5F5" d="M46.1,39.8c-0.6,1.6-2.3,2.7-2.9,3l0,0c-1.3,0.8-2.8,1.3-4.1,1.3c-1.4,0-2.1-0.6-2.2-1.6
		c3.6-0.3,9-1.5,9-6.7c0-3-2-4.4-5.3-4.4c-6.4,0-10,5.4-10,10.8c0,3.8,2,6.6,6.8,6.6c3.5,0,5.9-1.2,6.7-1.7h0c0,0,1.1-0.6,1.5-1.1
		C45.3,44.1,45.6,43.1,46.1,39.8z M39.2,35.9c0.2-0.1,0.3-0.1,0.4-0.1c0.4,0,0.7,0.3,0.7,0.7c0,0.9-1.2,2.1-3.1,2.2
		C37.6,37,38.4,36.1,39.2,35.9z"/>
	<path fill="#F5F5F5" d="M29.9,31.9h-2.5l1-5.6H22L19.2,42c-0.2,0.9-0.3,1.7-0.3,2.5c0,2.2,0.9,4.2,5.1,4.2c2,0,4.1-0.6,5.2-1.2
		c0,0,1-0.5,1.8-1.3c-0.7-1-1.1-2.3-1.1-3.7c-0.8,0.7-1.6,1.1-1.6,1.1C27.8,43.8,27.4,44,27,44c-0.8,0-1.4-0.2-1.5-1.2
		c0-0.2,0-0.6,0.1-0.9l0.9-5.1h2.5L29.9,31.9z"/>
	<path fill="#F5F5F5" d="M56.5,42.7c0,0,0-0.1,0-0.1c-0.5,0.4-1,0.6-1.3,0.7c-0.7,0.3-1.3,0.4-1.7,0.4c-0.6,0-0.9-0.3-0.9-0.9
		c0-0.2,0-0.5,0.1-0.8l2.8-15.9h-6.4l-2.8,15.8c-0.2,0.9-0.3,1.7-0.3,2.4c0,2.6,1.2,4.3,4.8,4.3c1.5,0,3.8-0.4,5.2-1.3
		c0,0,0.8-0.5,1.3-0.9C56.8,45.5,56.5,44.1,56.5,42.7z"/>
</g>
</svg>
