<?xml version="1.0" encoding="utf-8"?>
<!-- Generator: Adobe Illustrator 18.1.0, SVG Export Plug-In . SVG Version: 6.00 Build 0)  -->
<svg version="1.1" id="Layer_1" xmlns="http://www.w3.org/2000/svg" xmlns:xlink="http://www.w3.org/1999/xlink" x="0px" y="0px"
	 width="30px" height="32px" viewBox="0 0 30 32" enable-background="new 0 0 30 32" xml:space="preserve">
<g>
	<g>
		<path fill="#FFFFFF" d="M11.9,23.1c-3,0-6-1.2-8.1-3.3c-2.2-2.1-3.4-5-3.4-8s1.2-5.9,3.4-8c2.2-2.1,5.1-3.3,8.1-3.3s6,1.2,8.1,3.3
			s3.4,5,3.4,8s-1.2,5.9-3.4,8c-0.1,0.1-0.3,0.1-0.4,0c-0.1-0.1-0.1-0.3,0-0.4c2.1-2,3.2-4.8,3.2-7.7S21.6,6.1,19.6,4
			s-4.8-3.2-7.7-3.2S6.1,2,4.1,4c-4.3,4.2-4.3,11.1,0,15.3c2.8,2.8,6.9,3.8,10.7,2.8c0.1,0,0.3,0,0.3,0.2c0,0.1,0,0.3-0.2,0.3
			C13.9,22.9,12.9,23.1,11.9,23.1z"/>
		<path fill="#FFFFFF" d="M11.9,23.4c-3.1,0-6.2-1.3-8.4-3.4C1.2,17.8,0,14.8,0,11.7c0-3.1,1.2-6.1,3.5-8.3C5.7,1.2,8.7,0,11.8,0
			C15,0,18,1.2,20.2,3.4c2.2,2.2,3.5,5.2,3.5,8.3s-1.2,6.1-3.5,8.3c-0.2,0.2-0.6,0.2-0.9,0c-0.1-0.1-0.2-0.3-0.2-0.4
			c0-0.2,0.1-0.3,0.2-0.4c2-2,3.1-4.6,3.1-7.4s-1.1-5.4-3.1-7.4c-2-2-4.7-3.1-7.5-3.1S6.3,2.3,4.3,4.3C0.2,8.4,0.2,15,4.3,19.1
			c2,2,4.7,3.1,7.5,3.1c1,0,1.9-0.1,2.9-0.4c0.3-0.1,0.7,0.1,0.8,0.4c0,0.2,0,0.3-0.1,0.5c-0.1,0.1-0.2,0.2-0.4,0.3
			C14,23.3,12.9,23.4,11.9,23.4z"/>
	</g>
	<g>
		<path fill="#FFFFFF" d="M27,31.7c-0.1,0-0.1,0-0.2-0.1l-7.3-7.2c-1.4-1.4-1.4-3.6,0-5c0.1-0.1,0.3-0.1,0.4,0
			c0.1,0.1,0.1,0.3,0,0.4c-1.2,1.2-1.2,3.1,0,4.3l7.1,7l2-2l-6.7-6.7c-0.1-0.1-0.1-0.3,0-0.4c0.1-0.1,0.3-0.1,0.4,0l6.9,6.9
			c0.1,0.1,0.1,0.3,0,0.4l-2.4,2.3C27.2,31.6,27.1,31.7,27,31.7z"/>
		<path fill="#FFFFFF" d="M27,32c-0.2,0-0.3-0.1-0.4-0.2l-7.3-7.2c-0.7-0.7-1.2-1.7-1.2-2.8c0-1,0.4-2,1.2-2.8
			c0.2-0.2,0.6-0.2,0.9,0c0.1,0.1,0.2,0.3,0.2,0.4c0,0.2-0.1,0.3-0.2,0.4c-0.5,0.5-0.8,1.2-0.8,1.9c0,0.7,0.3,1.4,0.8,1.9l6.8,6.8
			l1.5-1.5L22,22.6c-0.1-0.1-0.2-0.3-0.2-0.4c0-0.2,0.1-0.3,0.2-0.4c0.2-0.2,0.6-0.2,0.9,0l6.9,6.9c0.1,0.1,0.2,0.3,0.2,0.4
			c0,0.2-0.1,0.3-0.2,0.4l-2.4,2.3C27.3,31.9,27.2,32,27,32z"/>
	</g>
</g>
</svg>
