<?xml version="1.0" encoding="utf-8"?>
<!-- Generator: Adobe Illustrator 18.1.0, SVG Export Plug-In . SVG Version: 6.00 Build 0)  -->
<svg version="1.1" id="Capa_1" xmlns="http://www.w3.org/2000/svg" xmlns:xlink="http://www.w3.org/1999/xlink" x="0px" y="0px"
	 width="19px" height="19px" viewBox="251.6 -50.6 19 19" enable-background="new 251.6 -50.6 19 19" xml:space="preserve">
<path fill="#FFFFFF" d="M251.7-46.8c1,2.9,3.1,6.1,6,9c2.9,2.9,6.2,5,9,6c0.4,0.1,0.8,0,1.1-0.3l2-2l0.5-0.5c0.4-0.4,0.4-1.1,0-1.5
	l-3.1-3.1c-0.4-0.4-1.1-0.4-1.5,0l-0.8,0.8c-0.4,0.4-1.1,0.5-1.6,0.1c-1-0.7-1.9-1.6-2.8-2.5c-0.9-0.9-1.7-1.9-2.5-2.8
	c-0.4-0.5-0.3-1.2,0.1-1.6l0.8-0.8c0.4-0.4,0.4-1.1,0-1.5l-3.1-3.1c-0.4-0.4-1.1-0.4-1.5,0l-0.5,0.5l-2,2
	C251.6-47.6,251.5-47.2,251.7-46.8z"/>
</svg>
