<?xml version="1.0" encoding="utf-8"?>
<!-- Generator: Adobe Illustrator 18.1.0, SVG Export Plug-In . SVG Version: 6.00 Build 0)  -->
<svg version="1.1" id="Layer_1" xmlns="http://www.w3.org/2000/svg" xmlns:xlink="http://www.w3.org/1999/xlink" x="0px" y="0px"
	 width="288px" height="96px" viewBox="-193 349 288 96" enable-background="new -193 349 288 96" xml:space="preserve">
<g>
	<g>
		<g>
			<circle fill="#3A5A98" cx="-177" cy="365.2" r="16"/>
		</g>
	</g>
	<path fill="#FFFFFF" d="M-175.1,359.5h2l0.2-3.1h-2.7c-3.8,0-3.6,3-3.6,3.4s0,2.5,0,2.5h-1.9v3.2h1.9v8.5h3.1v-8.5h2.6
		c0,0,0.2-1.7,0.3-3.3c-0.3,0-2.9,0-2.9,0s0-1.8,0-2.1C-176.1,359.9-175.5,359.5-175.1,359.5z"/>
</g>
<g>
	<g>
		<g>
			<circle fill="#34AADD" cx="-145" cy="365" r="16"/>
		</g>
	</g>
	<path fill="#FFFFFF" d="M-136,359.8c-0.7,0.3-1.4,0.5-2.1,0.6c0.8-0.5,1.3-1.2,1.6-2.1c-0.7,0.4-1.5,0.7-2.3,0.9
		c-0.7-0.7-1.7-1.2-2.7-1.2c-2,0-3.7,1.7-3.7,3.8c0,0.3,0,0.6,0.1,0.9c-3.1-0.2-5.8-1.7-7.6-4c-0.3,0.6-0.5,1.2-0.5,1.9
		c0,1.3,0.7,2.5,1.6,3.2c-0.6,0-1.2-0.2-1.7-0.5l0,0c0,1.8,1.3,3.4,3,3.7c-0.3,0.1-0.6,0.1-1,0.1c-0.2,0-0.5,0-0.7-0.1
		c0.5,1.5,1.8,2.6,3.4,2.6c-1.3,1-2.9,1.6-4.6,1.6c-0.3,0-0.6,0-0.9-0.1c1.6,1.1,3.6,1.7,5.7,1.7c6.8,0,10.5-5.8,10.5-10.8
		c0-0.2,0-0.3,0-0.5C-137.1,361.2-136.5,360.5-136,359.8z"/>
</g>
<g>
	<g>
		<g>
			<circle fill="#C9222D" cx="15" cy="365" r="16"/>
		</g>
	</g>
	<path fill="#FFFFFF" d="M15,355c-5.5,0-10,4.5-10,10c0,4.1,2.5,7.6,6,9.2c0-0.7,0-1.5,0.2-2.3s1.3-5.4,1.3-5.4s-0.3-0.6-0.3-1.6
		c0-1.5,0.9-2.6,1.9-2.6c0.9,0,1.3,0.7,1.3,1.5c0,0.9-0.6,2.3-0.9,3.5c-0.3,1.1,0.5,1.9,1.6,1.9c1.9,0,3.2-2.4,3.2-5.3
		c0-2.2-1.5-3.8-4.2-3.8c-3,0-4.9,2.3-4.9,4.8c0,0.9,0.3,1.5,0.7,2c0.2,0.2,0.2,0.3,0.1,0.6c0,0.2-0.2,0.6-0.2,0.8
		c-0.1,0.3-0.3,0.3-0.5,0.3c-1.4-0.6-2-2.1-2-3.8c0-2.8,2.4-6.2,7.1-6.2c3.8,0,6.3,2.8,6.3,5.7c0,3.9-2.2,6.9-5.4,6.9
		c-1.1,0-2.1-0.6-2.4-1.2c0,0-0.6,2.3-0.7,2.7c-0.2,0.8-0.6,1.5-1,2.1c0.9,0.3,1.8,0.4,2.8,0.4c5.5,0,10-4.5,10-10
		C25,359.5,20.5,355,15,355z"/>
</g>
<g>
	<g>
		<g>
			<circle fill="#006AA6" cx="-81" cy="365" r="16"/>
		</g>
	</g>
	<path fill="#FFFFFF" d="M-84.8,359.5c0,0.8-0.6,1.4-1.6,1.4s-1.6-0.6-1.6-1.4s0.6-1.5,1.6-1.5S-84.8,358.6-84.8,359.5z M-88,372
		v-9.9h2.9v9.9H-88z"/>
	<path fill="#FFFFFF" d="M-83.1,362.1h2.9v1.2h0.1c0.4-0.6,1.8-1.6,3.6-1.6c2.1,0,3.6,1.4,3.6,4.3v6h-2.9v-5.5
		c0-1.3-0.7-2.2-1.9-2.2c-0.9,0-1.7,0.6-1.9,1.2c-0.1,0.2-0.1,0.5-0.1,0.8v5.7H-83L-83.1,362.1z"/>
</g>
<g>
	<g>
		<g>
			<circle fill="#D42027" cx="-49" cy="365" r="16"/>
		</g>
	</g>
	<g>
		<g>
			<path fill="#FFFFFF" d="M-39.2,361.8c0,0-0.2-1.3-0.8-1.8c-0.8-0.7-1.6-0.7-2-0.8c-2.8-0.2-7-0.2-7-0.2l0,0c0,0-4.2,0-7,0.2
				c-0.4,0-1.2,0-2,0.8c-0.6,0.6-0.8,1.8-0.8,1.8s-0.2,1.5-0.2,3v1.4c0,1.5,0.2,3,0.2,3s0.2,1.3,0.8,1.8c0.8,0.7,1.8,0.7,2.2,0.8
				c1.6,0.2,6.8,0.2,6.8,0.2s4.2,0,7-0.2c0.4,0,1.2,0,2-0.8c0.6-0.6,0.8-1.8,0.8-1.8s0.2-1.5,0.2-3v-1.4
				C-39,363.3-39.2,361.8-39.2,361.8z M-51.1,367.9v-5.2l5.4,2.6L-51.1,367.9z"/>
		</g>
	</g>
</g>
<g>
	<g>
		<g>
			<circle fill="#D42F36" cx="-113" cy="365" r="16"/>
		</g>
	</g>
	<g>
		<path fill="#FFFFFF" d="M-112.4,356.2c0.2,0.1,0.3,0.2,0.5,0.4c0.2,0.2,0.4,0.4,0.6,0.7c0.2,0.3,0.3,0.6,0.5,1
			c0.1,0.4,0.2,0.8,0.2,1.3c0,0.9-0.2,1.6-0.6,2.2c-0.2,0.3-0.4,0.5-0.6,0.7s-0.5,0.5-0.8,0.7c-0.2,0.2-0.3,0.3-0.4,0.5
			c-0.2,0.2-0.2,0.4-0.2,0.7c0,0.3,0.1,0.5,0.2,0.7s0.3,0.3,0.4,0.4l0.9,0.7c0.5,0.4,1,0.9,1.4,1.5c0.4,0.5,0.6,1.2,0.6,2.1
			c0,1.2-0.5,2.3-1.6,3.3s-2.8,1.5-4.9,1.5c-1.8,0-3.1-0.4-4-1.1s-1.3-1.5-1.3-2.5c0-0.5,0.1-1,0.4-1.6s0.8-1.1,1.5-1.5
			c0.8-0.5,1.7-0.8,2.6-0.9s1.7-0.2,2.3-0.2c-0.2-0.2-0.3-0.5-0.5-0.8s-0.3-0.6-0.3-1c0-0.2,0-0.4,0.1-0.6s0.1-0.3,0.2-0.4
			c-0.3,0-0.6,0-0.8,0c-1.4,0-2.4-0.4-3.1-1.3c-0.7-0.8-1.1-1.7-1.1-2.7c0-1.2,0.5-2.4,1.6-3.4c0.7-0.6,1.5-1,2.3-1.2
			s1.5-0.2,2.2-0.2h5.1l-1.6,0.9L-112.4,356.2L-112.4,356.2L-112.4,356.2z M-111.4,370.9c0-0.6-0.2-1.2-0.6-1.7s-1.1-1-2.1-1.7
			c-0.2,0-0.4,0-0.6,0c-0.1,0-0.5,0-1,0c-0.5,0.1-1.1,0.2-1.6,0.4c-0.1,0-0.3,0.1-0.6,0.2c-0.2,0.1-0.5,0.3-0.7,0.5
			s-0.4,0.5-0.6,0.8s-0.3,0.7-0.3,1.2c0,0.9,0.4,1.6,1.2,2.2c0.8,0.6,1.8,0.9,3.2,0.9c1.2,0,2.1-0.3,2.8-0.8
			C-111.7,372.3-111.4,371.7-111.4,370.9z M-115,363.4c0.7,0,1.2-0.3,1.7-0.7c0.2-0.3,0.4-0.7,0.4-1s0.1-0.6,0.1-0.9
			c0-1-0.3-2-0.8-3c-0.2-0.5-0.6-0.9-1-1.2c-0.4-0.3-0.8-0.4-1.4-0.4c-0.7,0-1.3,0.3-1.7,0.8c-0.4,0.6-0.6,1.2-0.6,1.9
			c0,0.9,0.3,1.9,0.8,2.9c0.3,0.5,0.6,0.9,1,1.2C-116,363.3-115.5,363.4-115,363.4z"/>
		<path fill="#FFFFFF" d="M-102.3,358.1h-2.7v-2.7h-1.3v2.7h-2.7v1.3h2.7v2.7h1.3v-2.7h2.7V358.1z"/>
	</g>
</g>
<g>
	<g>
		<g>
			<circle fill="#669B42" cx="-17" cy="365" r="16"/>
		</g>
	</g>
	<path fill="#FFFFFF" d="M-9.7,372h-14.6c-1.5,0-2.7-1.2-2.7-2.7v-8.6c0-1.5,1.2-2.7,2.7-2.7h14.6c1.5,0,2.7,1.2,2.7,2.7v8.6
		C-7,370.8-8.2,372-9.7,372z M-25,368.4c0,0.9,0.7,1.6,1.6,1.6h12.9c0.9,0,1.6-0.7,1.6-1.6v-6.9v-0.1l-6.3,5.4
		c-0.5,0.5-1.2,0.8-1.9,0.8s-1.4-0.3-1.9-0.8l-5.8-5.7c0,0.1-0.1,0.2-0.1,0.4v6.9L-25,368.4L-25,368.4z M-23.5,360
		c-0.1,0-0.2,0-0.3,0.1l5.2,5.2c0.3,0.3,0.8,0.5,1.2,0.5c0.5,0,0.9-0.2,1.2-0.5l6-5.1c-0.2-0.1-0.3-0.1-0.5-0.1h-12.8
		C-23.5,360.1-23.5,360-23.5,360z"/>
</g>
<g>
	<g>
		<g>
			<g>
				<path fill="#FFFFFF" d="M-177,414.2c8.3,0,15,6.7,15,15s-6.7,15-15,15s-15-6.7-15-15S-185.3,414.2-177,414.2 M-177,413.2
					c-8.8,0-16,7.2-16,16s7.2,16,16,16s16-7.2,16-16C-161,420.4-168.2,413.2-177,413.2L-177,413.2z"/>
			</g>
		</g>
	</g>
	<path fill="#FFFFFF" d="M-175.1,423.5h2l0.2-3.1h-2.7c-3.8,0-3.6,3-3.6,3.4s0,2.5,0,2.5h-1.9v3.2h1.9v8.5h3.1v-8.5h2.6
		c0,0,0.2-1.7,0.3-3.3c-0.3,0-2.9,0-2.9,0s0-1.8,0-2.1C-176.1,423.9-175.5,423.5-175.1,423.5z"/>
</g>
<g>
	<g>
		<g>
			<g>
				<path fill="#FFFFFF" d="M-145,414c8.3,0,15,6.7,15,15s-6.7,15-15,15s-15-6.7-15-15S-153.3,414-145,414 M-145,413
					c-8.8,0-16,7.2-16,16s7.2,16,16,16s16-7.2,16-16S-136.2,413-145,413L-145,413z"/>
			</g>
		</g>
	</g>
	<path fill="#FFFFFF" d="M-136,423.8c-0.7,0.3-1.4,0.5-2.1,0.6c0.8-0.5,1.3-1.2,1.6-2.1c-0.7,0.4-1.5,0.7-2.3,0.9
		c-0.7-0.7-1.7-1.2-2.7-1.2c-2,0-3.7,1.7-3.7,3.8c0,0.3,0,0.6,0.1,0.9c-3.1-0.2-5.8-1.7-7.6-4c-0.3,0.6-0.5,1.2-0.5,1.9
		c0,1.3,0.7,2.5,1.6,3.2c-0.6,0-1.2-0.2-1.7-0.5l0,0c0,1.8,1.3,3.4,3,3.7c-0.3,0.1-0.6,0.1-1,0.1c-0.2,0-0.5,0-0.7-0.1
		c0.5,1.5,1.8,2.6,3.4,2.6c-1.3,1-2.9,1.6-4.6,1.6c-0.3,0-0.6,0-0.9-0.1c1.6,1.1,3.6,1.7,5.7,1.7c6.8,0,10.5-5.8,10.5-10.8
		c0-0.2,0-0.3,0-0.5C-137.1,425.2-136.5,424.5-136,423.8z"/>
</g>
<g>
	<g>
		<g>
			<path fill="#FFFFFF" d="M15,414c8.3,0,15,6.7,15,15s-6.7,15-15,15s-15-6.7-15-15S6.7,414,15,414 M15,413c-8.8,0-16,7.2-16,16
				s7.2,16,16,16s16-7.2,16-16S23.8,413,15,413L15,413z"/>
		</g>
	</g>
</g>
<g>
	<g>
		<g>
			<path fill="#FFFFFF" d="M-81,414c8.3,0,15,6.7,15,15s-6.7,15-15,15s-15-6.7-15-15S-89.3,414-81,414 M-81,413c-8.8,0-16,7.2-16,16
				s7.2,16,16,16s16-7.2,16-16S-72.2,413-81,413L-81,413z"/>
		</g>
	</g>
</g>
<path fill="#FFFFFF" d="M-84.8,423.5c0,0.8-0.6,1.4-1.6,1.4s-1.6-0.6-1.6-1.4s0.6-1.5,1.6-1.5S-84.8,422.6-84.8,423.5z M-88,436
	v-9.9h2.9v9.9H-88z"/>
<path fill="#FFFFFF" d="M-83.1,426.1h2.9v1.2h0.1c0.4-0.6,1.8-1.6,3.6-1.6c2.1,0,3.6,1.4,3.6,4.3v6h-2.9v-5.5c0-1.3-0.7-2.2-1.9-2.2
	c-0.9,0-1.7,0.6-1.9,1.2c-0.1,0.2-0.1,0.5-0.1,0.8v5.7H-83L-83.1,426.1z"/>
<g>
	<g>
		<g>
			<path fill="#FFFFFF" d="M-49,414c8.3,0,15,6.7,15,15s-6.7,15-15,15s-15-6.7-15-15S-57.3,414-49,414 M-49,413c-8.8,0-16,7.2-16,16
				s7.2,16,16,16s16-7.2,16-16S-40.2,413-49,413L-49,413z"/>
		</g>
	</g>
</g>
<g>
	<g>
		<path fill="#FFFFFF" d="M-39.2,425.8c0,0-0.2-1.3-0.8-1.8c-0.8-0.7-1.6-0.7-2-0.8c-2.8-0.2-7-0.2-7-0.2l0,0c0,0-4.2,0-7,0.2
			c-0.4,0-1.2,0-2,0.8c-0.6,0.6-0.8,1.8-0.8,1.8s-0.2,1.5-0.2,3v1.4c0,1.5,0.2,3,0.2,3s0.2,1.3,0.8,1.8c0.8,0.7,1.8,0.7,2.2,0.8
			c1.6,0.2,6.8,0.2,6.8,0.2s4.2,0,7-0.2c0.4,0,1.2,0,2-0.8c0.6-0.6,0.8-1.8,0.8-1.8s0.2-1.5,0.2-3v-1.4
			C-39,427.3-39.2,425.8-39.2,425.8z M-51.1,431.9v-5.2l5.4,2.6L-51.1,431.9z"/>
	</g>
</g>
<g>
	<g>
		<g>
			<path fill="#FFFFFF" d="M-113,414c8.3,0,15,6.7,15,15s-6.7,15-15,15s-15-6.7-15-15S-121.3,414-113,414 M-113,413
				c-8.8,0-16,7.2-16,16s7.2,16,16,16s16-7.2,16-16S-104.2,413-113,413L-113,413z"/>
		</g>
	</g>
</g>
<g>
	<path fill="#FFFFFF" d="M-112.4,420.2c0.2,0.1,0.3,0.2,0.5,0.4c0.2,0.2,0.4,0.4,0.6,0.7c0.2,0.3,0.3,0.6,0.5,1
		c0.1,0.4,0.2,0.8,0.2,1.3c0,0.9-0.2,1.6-0.6,2.2c-0.2,0.3-0.4,0.5-0.6,0.7s-0.5,0.5-0.8,0.7c-0.2,0.2-0.3,0.3-0.4,0.5
		c-0.2,0.2-0.2,0.4-0.2,0.7c0,0.3,0.1,0.5,0.2,0.7s0.3,0.3,0.4,0.4l0.9,0.7c0.5,0.4,1,0.9,1.4,1.5c0.4,0.5,0.6,1.2,0.6,2.1
		c0,1.2-0.5,2.3-1.6,3.3s-2.8,1.5-4.9,1.5c-1.8,0-3.1-0.4-4-1.1s-1.3-1.5-1.3-2.5c0-0.5,0.1-1,0.4-1.6s0.8-1.1,1.5-1.5
		c0.8-0.5,1.7-0.8,2.6-0.9s1.7-0.2,2.3-0.2c-0.2-0.2-0.3-0.5-0.5-0.8s-0.3-0.6-0.3-1c0-0.2,0-0.4,0.1-0.6s0.1-0.3,0.2-0.4
		c-0.3,0-0.6,0-0.8,0c-1.4,0-2.4-0.4-3.1-1.3c-0.7-0.8-1.1-1.7-1.1-2.7c0-1.2,0.5-2.4,1.6-3.4c0.7-0.6,1.5-1,2.3-1.2
		s1.5-0.2,2.2-0.2h5.1l-1.6,0.9L-112.4,420.2L-112.4,420.2L-112.4,420.2z M-111.4,434.9c0-0.6-0.2-1.2-0.6-1.7s-1.1-1-2.1-1.7
		c-0.2,0-0.4,0-0.6,0c-0.1,0-0.5,0-1,0c-0.5,0.1-1.1,0.2-1.6,0.4c-0.1,0-0.3,0.1-0.6,0.2c-0.2,0.1-0.5,0.3-0.7,0.5s-0.4,0.5-0.6,0.8
		s-0.3,0.7-0.3,1.2c0,0.9,0.4,1.6,1.2,2.2c0.8,0.6,1.8,0.9,3.2,0.9c1.2,0,2.1-0.3,2.8-0.8C-111.7,436.3-111.4,435.7-111.4,434.9z
		 M-115,427.4c0.7,0,1.2-0.3,1.7-0.7c0.2-0.3,0.4-0.7,0.4-1s0.1-0.6,0.1-0.9c0-1-0.3-2-0.8-3c-0.2-0.5-0.6-0.9-1-1.2
		c-0.4-0.3-0.8-0.4-1.4-0.4c-0.7,0-1.3,0.3-1.7,0.8c-0.4,0.6-0.6,1.2-0.6,1.9c0,0.9,0.3,1.9,0.8,2.9c0.3,0.5,0.6,0.9,1,1.2
		C-116,427.3-115.5,427.4-115,427.4z"/>
	<path fill="#FFFFFF" d="M-102.3,422.1h-2.7v-2.7h-1.3v2.7h-2.7v1.3h2.7v2.7h1.3v-2.7h2.7V422.1z"/>
</g>
<g>
	<g>
		<g>
			<path fill="#FFFFFF" d="M-17,414c8.3,0,15,6.7,15,15s-6.7,15-15,15s-15-6.7-15-15S-25.3,414-17,414 M-17,413c-8.8,0-16,7.2-16,16
				s7.2,16,16,16s16-7.2,16-16S-8.2,413-17,413L-17,413z"/>
		</g>
	</g>
</g>
<path fill="#FFFFFF" d="M-9.7,436h-14.6c-1.5,0-2.7-1.2-2.7-2.7v-8.6c0-1.5,1.2-2.7,2.7-2.7h14.6c1.5,0,2.7,1.2,2.7,2.7v8.6
	C-7,434.8-8.2,436-9.7,436z M-25,432.4c0,0.9,0.7,1.6,1.6,1.6h12.9c0.9,0,1.6-0.7,1.6-1.6v-6.9v-0.1l-6.3,5.4
	c-0.5,0.5-1.2,0.8-1.9,0.8s-1.4-0.3-1.9-0.8l-5.8-5.7c0,0.1-0.1,0.2-0.1,0.4v6.9L-25,432.4L-25,432.4z M-23.5,424
	c-0.1,0-0.2,0-0.3,0.1l5.2,5.2c0.3,0.3,0.8,0.5,1.2,0.5c0.5,0,0.9-0.2,1.2-0.5l6-5.1c-0.2-0.1-0.3-0.1-0.5-0.1h-12.8
	C-23.5,424.1-23.5,424-23.5,424z"/>
<g>
	<g>
		<g>
			<circle fill="#717CAF" cx="-177" cy="397.2" r="16"/>
		</g>
	</g>
	<path fill="#FFFFFF" d="M-175.1,391.5h2l0.2-3.1h-2.7c-3.8,0-3.6,3-3.6,3.4s0,2.5,0,2.5h-1.9v3.2h1.9v8.5h3.1v-8.5h2.6
		c0,0,0.2-1.7,0.3-3.3c-0.3,0-2.9,0-2.9,0s0-1.8,0-2.1C-176.1,391.9-175.5,391.5-175.1,391.5z"/>
</g>
<g>
	<g>
		<g>
			<circle fill="#7DBEE5" cx="-145" cy="397" r="16"/>
		</g>
	</g>
	<path fill="#FFFFFF" d="M-136,391.8c-0.7,0.3-1.4,0.5-2.1,0.6c0.8-0.5,1.3-1.2,1.6-2.1c-0.7,0.4-1.5,0.7-2.3,0.9
		c-0.7-0.7-1.6-1.2-2.7-1.2c-2,0-3.7,1.7-3.7,3.8c0,0.3,0,0.6,0.1,0.9c-3.1-0.2-5.8-1.7-7.6-4c-0.3,0.6-0.5,1.2-0.5,1.9
		c0,1.3,0.7,2.5,1.6,3.2c-0.6,0-1.2-0.2-1.7-0.5l0,0c0,1.8,1.3,3.4,3,3.7c-0.3,0.1-0.6,0.1-1,0.1c-0.2,0-0.5,0-0.7-0.1
		c0.5,1.5,1.8,2.6,3.4,2.6c-1.3,1-2.9,1.6-4.6,1.6c-0.3,0-0.6,0-0.9-0.1c1.6,1.1,3.6,1.7,5.7,1.7c6.8,0,10.5-5.8,10.5-10.8
		c0-0.2,0-0.3,0-0.5C-137.1,393.2-136.5,392.5-136,391.8z"/>
</g>
<g>
	<g>
		<g>
			<circle fill="#D66A59" cx="15" cy="397" r="16"/>
		</g>
	</g>
	<path fill="#FFFFFF" d="M15,387c-5.5,0-10,4.5-10,10c0,4.1,2.5,7.6,6,9.2c0-0.7,0-1.5,0.2-2.3s1.3-5.5,1.3-5.5s-0.3-0.6-0.3-1.6
		c0-1.5,0.9-2.6,1.9-2.6c0.9,0,1.3,0.7,1.3,1.5c0,0.9-0.6,2.3-0.9,3.5c-0.3,1.1,0.5,1.9,1.6,1.9c1.9,0,3.2-2.4,3.2-5.3
		c0-2.2-1.5-3.8-4.2-3.8c-3,0-4.9,2.3-4.9,4.8c0,0.9,0.3,1.5,0.7,2c0.2,0.2,0.2,0.3,0.1,0.6c0,0.2-0.2,0.6-0.2,0.8
		c-0.1,0.3-0.3,0.3-0.5,0.3c-1.4-0.6-2-2.1-2-3.8c0-2.8,2.4-6.2,7.1-6.2c3.8,0,6.3,2.8,6.3,5.7c0,3.9-2.2,6.9-5.4,6.9
		c-1.1,0-2.1-0.6-2.4-1.2c0,0-0.6,2.3-0.7,2.7c-0.2,0.8-0.6,1.5-1,2.1c0.9,0.3,1.8,0.4,2.8,0.4c5.5,0,10-4.5,10-10
		C25,391.5,20.5,387,15,387z"/>
</g>
<g>
	<g>
		<g>
			<circle fill="#6488BB" cx="-81" cy="397" r="16"/>
		</g>
	</g>
	<path fill="#FFFFFF" d="M-84.8,391.5c0,0.8-0.6,1.4-1.6,1.4s-1.6-0.6-1.6-1.4s0.6-1.5,1.6-1.5S-84.8,390.6-84.8,391.5z M-88,404
		v-9.9h2.9v9.9H-88z"/>
	<path fill="#FFFFFF" d="M-83.1,394.1h2.9v1.2h0.1c0.4-0.6,1.8-1.6,3.6-1.6c2.1,0,3.6,1.4,3.6,4.3v6h-2.9v-5.5
		c0-1.3-0.7-2.2-1.9-2.2c-0.9,0-1.7,0.6-1.9,1.2c-0.1,0.2-0.1,0.5-0.1,0.8v5.7H-83L-83.1,394.1z"/>
</g>
<g>
	<g>
		<g>
			<circle fill="#DE6C52" cx="-49" cy="397" r="16"/>
		</g>
	</g>
	<g>
		<g>
			<path fill="#FFFFFF" d="M-39.2,393.8c0,0-0.2-1.3-0.8-1.8c-0.8-0.7-1.6-0.7-2-0.8c-2.8-0.2-7-0.2-7-0.2l0,0c0,0-4.2,0-7,0.2
				c-0.4,0-1.2,0-2,0.8c-0.6,0.6-0.8,1.8-0.8,1.8s-0.2,1.5-0.2,3v1.4c0,1.5,0.2,3,0.2,3s0.2,1.3,0.8,1.8c0.8,0.7,1.8,0.7,2.2,0.8
				c1.6,0.2,6.8,0.2,6.8,0.2s4.2,0,7-0.2c0.4,0,1.2,0,2-0.8c0.6-0.6,0.8-1.8,0.8-1.8s0.2-1.5,0.2-3v-1.4
				C-39,395.3-39.2,393.8-39.2,393.8z M-51.1,399.9v-5.2l5.4,2.6L-51.1,399.9z"/>
		</g>
	</g>
</g>
<g>
	<g>
		<g>
			<circle fill="#DE7261" cx="-113" cy="397" r="16"/>
		</g>
	</g>
	<g>
		<path fill="#FFFFFF" d="M-112.4,388.2c0.2,0.1,0.3,0.2,0.5,0.4c0.2,0.2,0.4,0.4,0.6,0.7c0.2,0.3,0.3,0.6,0.5,1
			c0.1,0.4,0.2,0.8,0.2,1.3c0,0.9-0.2,1.6-0.6,2.2c-0.2,0.3-0.4,0.5-0.6,0.7s-0.5,0.5-0.8,0.7c-0.2,0.2-0.3,0.3-0.4,0.5
			c-0.2,0.2-0.2,0.4-0.2,0.7c0,0.3,0.1,0.5,0.2,0.7s0.3,0.3,0.4,0.4l0.9,0.7c0.5,0.4,1,0.9,1.4,1.5c0.4,0.5,0.6,1.2,0.6,2.1
			c0,1.2-0.5,2.3-1.6,3.3s-2.8,1.5-4.9,1.5c-1.8,0-3.1-0.4-4-1.1s-1.3-1.5-1.3-2.5c0-0.5,0.1-1,0.4-1.6s0.8-1.1,1.5-1.5
			c0.8-0.5,1.7-0.8,2.6-0.9s1.7-0.2,2.3-0.2c-0.2-0.2-0.3-0.5-0.5-0.8s-0.3-0.6-0.3-1c0-0.2,0-0.4,0.1-0.6s0.1-0.3,0.2-0.4
			c-0.3,0-0.6,0-0.8,0c-1.4,0-2.4-0.4-3.1-1.3c-0.7-0.8-1.1-1.7-1.1-2.7c0-1.2,0.5-2.4,1.6-3.4c0.7-0.6,1.5-1,2.3-1.2
			s1.5-0.2,2.2-0.2h5.1l-1.6,0.9L-112.4,388.2L-112.4,388.2L-112.4,388.2z M-111.4,402.9c0-0.6-0.2-1.2-0.6-1.7s-1.1-1-2.1-1.7
			c-0.2,0-0.4,0-0.6,0c-0.1,0-0.5,0-1,0c-0.5,0.1-1.1,0.2-1.6,0.4c-0.1,0-0.3,0.1-0.6,0.2c-0.2,0.1-0.5,0.3-0.7,0.5
			s-0.4,0.5-0.6,0.8s-0.3,0.7-0.3,1.2c0,0.9,0.4,1.6,1.2,2.2c0.8,0.6,1.8,0.9,3.2,0.9c1.2,0,2.1-0.3,2.8-0.8
			C-111.7,404.3-111.4,403.7-111.4,402.9z M-115,395.4c0.7,0,1.2-0.3,1.7-0.7c0.2-0.3,0.4-0.7,0.4-1s0.1-0.6,0.1-0.9
			c0-1-0.3-2-0.8-3c-0.2-0.5-0.6-0.9-1-1.2c-0.4-0.3-0.9-0.4-1.4-0.5c-0.7,0-1.3,0.3-1.7,0.8c-0.4,0.6-0.6,1.2-0.6,1.9
			c0,0.9,0.3,1.9,0.8,2.9c0.3,0.5,0.6,0.9,1,1.2C-116,395.3-115.5,395.4-115,395.4z"/>
		<path fill="#FFFFFF" d="M-102.3,390.1h-2.7v-2.7h-1.3v2.7h-2.7v1.3h2.7v2.7h1.3v-2.7h2.7V390.1z"/>
	</g>
</g>
<g>
	<g>
		<g>
			<circle fill="#8FB170" cx="-17" cy="397" r="16"/>
		</g>
	</g>
	<path fill="#FFFFFF" d="M-9.7,404h-14.6c-1.5,0-2.7-1.2-2.7-2.7v-8.6c0-1.5,1.2-2.7,2.7-2.7h14.6c1.5,0,2.7,1.2,2.7,2.7v8.6
		C-7,402.8-8.2,404-9.7,404z M-25,400.4c0,0.9,0.7,1.6,1.6,1.6h12.9c0.9,0,1.6-0.7,1.6-1.6v-6.9v-0.1l-6.3,5.4
		c-0.5,0.5-1.2,0.8-1.9,0.8s-1.4-0.3-1.9-0.8l-5.8-5.7c0,0.1-0.1,0.2-0.1,0.4v6.9L-25,400.4L-25,400.4z M-23.5,392
		c-0.1,0-0.2,0-0.3,0.1l5.2,5.2c0.3,0.3,0.8,0.5,1.2,0.5c0.5,0,0.9-0.2,1.2-0.5l6-5.1c-0.2-0.1-0.3-0.1-0.5-0.1h-12.8
		C-23.5,392.1-23.5,392-23.5,392z"/>
</g>
<path fill="#FFFFFF" d="M15.5,419.2c-5.3,0-7.9,3.8-7.9,6.9c0,1.9,0.7,3.6,2.3,4.2c0.3,0.1,0.5,0,0.6-0.3c0.1-0.2,0.2-0.7,0.2-0.9
	c0.1-0.3,0-0.4-0.2-0.6c-0.4-0.5-0.7-1.2-0.7-2.2c0-2.8,2.1-5.3,5.5-5.3c3,0,4.6,1.8,4.6,4.3c0,3.2-1.4,5.9-3.5,5.9
	c-1.2,0-2-1-1.8-2.1c0.3-1.4,1-2.9,1-3.9c0-0.9-0.5-1.7-1.5-1.7c-1.2,0-2.1,1.2-2.1,2.9c0,1,0.4,1.8,0.4,1.8s-1.2,5.2-1.4,6.1
	c-0.4,1.8-0.1,4,0,4.2c0,0.1,0.2,0.2,0.3,0.1s1.5-1.9,2-3.6c0.1-0.5,0.8-3.1,0.8-3.1c0.4,0.7,1.5,1.4,2.7,1.4c3.6,0,6-3.3,6-7.6
	C22.5,422.3,19.7,419.2,15.5,419.2z"/>
<g>
	<g>
		<g>
			<circle fill="#F4523D" cx="47" cy="365" r="16"/>
		</g>
	</g>
	<g>
		<path fill="#FFFFFF" d="M48.6,356.5v7h6.7v3h-6.7v7.1h-3.1v-7.1h-6.7v-3h6.7v-7H48.6z"/>
	</g>
</g>
<g>
	<path fill="#FFFFFF" d="M94,354.7L83.6,365l10,10l-4.5,4.5l-10-10L68.7,380l-4.7-4.7l10.5-10.5l-10-10l4.5-4.5l10,10L89.3,350
		L94,354.7z"/>
</g>
<g>
	<g>
		<g>
			<circle fill="#F8694D" cx="47" cy="397" r="16"/>
		</g>
	</g>
	<g>
		<path fill="#FFFFFF" d="M48.6,388.5v7h6.7v3h-6.7v7.1h-3.1v-7.1h-6.7v-3h6.7v-7H48.6z"/>
	</g>
</g>
</svg>
